<svg class="main-svg" xmlns="http://www.w3.org/2000/svg" xmlns:xlink="http://www.w3.org/1999/xlink" width="345" height="320.994" style="" viewBox="0 0 345 320.994"><rect x="0" y="0" width="345" height="320.994" style="fill: rgb(255, 255, 255); fill-opacity: 1;"/><defs id="defs-883307"><g class="clips"><clipPath id="clip883307xyplot" class="plotclip"><rect width="171" height="201"/></clipPath><clipPath class="axesclip" id="clip883307x"><rect x="60" y="0" width="171" height="320.994"/></clipPath><clipPath class="axesclip" id="clip883307y"><rect x="0" y="60" width="345" height="201"/></clipPath><clipPath class="axesclip" id="clip883307xy"><rect x="60" y="60" width="171" height="201"/></clipPath></g><g class="gradients"/></defs><g class="bglayer"/><g class="layer-below"><g class="imagelayer"/><g class="shapelayer"/></g><g class="cartesianlayer"><g class="subplot xy"><g class="layer-subplot"><g class="shapelayer"/><g class="imagelayer"/></g><g class="gridlayer"><g class="x"><path class="xgrid crisp" transform="translate(107.7,0)" d="M0,60v201" style="stroke: rgb(238, 238, 238); stroke-opacity: 1; stroke-width: 1px;"/><path class="xgrid crisp" transform="translate(155.4,0)" d="M0,60v201" style="stroke: rgb(238, 238, 238); stroke-opacity: 1; stroke-width: 1px;"/><path class="xgrid crisp" transform="translate(203.1,0)" d="M0,60v201" style="stroke: rgb(238, 238, 238); stroke-opacity: 1; stroke-width: 1px;"/></g><g class="y"><path class="ygrid crisp" transform="translate(0,214.77)" d="M60,0h171" style="stroke: rgb(238, 238, 238); stroke-opacity: 1; stroke-width: 1px;"/><path class="ygrid crisp" transform="translate(0,178.59)" d="M60,0h171" style="stroke: rgb(238, 238, 238); stroke-opacity: 1; stroke-width: 1px;"/><path class="ygrid crisp" transform="translate(0,142.41)" d="M60,0h171" style="stroke: rgb(238, 238, 238); stroke-opacity: 1; stroke-width: 1px;"/><path class="ygrid crisp" transform="translate(0,106.22999999999999)" d="M60,0h171" style="stroke: rgb(238, 238, 238); stroke-opacity: 1; stroke-width: 1px;"/><path class="ygrid crisp" transform="translate(0,70.05)" d="M60,0h171" style="stroke: rgb(238, 238, 238); stroke-opacity: 1; stroke-width: 1px;"/></g></g><g class="zerolinelayer"><path class="xzl zl crisp" transform="translate(60,0)" d="M0,60v201" style="stroke: rgb(68, 68, 68); stroke-opacity: 1; stroke-width: 1px;"/><path class="yzl zl crisp" transform="translate(0,250.95)" d="M60,0h171" style="stroke: rgb(68, 68, 68); stroke-opacity: 1; stroke-width: 1px;"/></g><path class="xlines-below"/><path class="ylines-below"/><g class="overlines-below"/><g class="xaxislayer-below"/><g class="yaxislayer-below"/><g class="overaxes-below"/><g class="plot" transform="translate(60, 60)" clip-path="url('#clip883307xyplot')"><g class="scatterlayer mlayer"><g class="trace scatter tracee0aaaa" style="stroke-miterlimit: 2; opacity: 1;"><g class="fills"/><g class="errorbars"/><g class="lines"><path class="js-line" d="M0,190.95L0.24,65.23L0.95,66.12L1.19,68.49L1.67,81.01L1.91,71.44L2.86,106.76L3.1,94.61L3.82,126.93L4.05,108.56L4.53,149.23L4.77,79.35L5.49,162.25L5.72,136.56L5.96,156.15L6.44,162.61L6.68,132.14L6.92,162.56L7.39,142.98L7.63,175.29L7.87,129.74L8.59,131.59L8.82,160.29L9.06,173.28L9.3,148.96L9.54,139.73L10.02,169.38L10.26,132.4L10.97,179.57L11.21,149.96L11.45,125.73L11.69,158.66L11.92,167.95L12.16,150.98L12.4,166.96L12.64,173.7L12.88,171.99L13.12,139.96L13.83,183.02L14.07,165.39L14.31,162.8L15.26,181.25L15.5,183.68L15.74,182.94L15.98,166.89L17.41,186.89L17.65,179.8L17.89,160.55L18.36,177.25L18.6,175.78L18.84,150.73L19.08,176.44L19.32,168.09L19.56,169.26L19.79,167.59L20.03,168L20.27,184.32L20.75,184.95L21.23,168.21L21.46,185.83L21.94,148.38L22.18,163.72L22.42,188.41L22.66,183.65L22.9,162.32L23.85,185.76L24.09,186.93L24.33,176.47L24.8,178.44L25.04,182.2L25.28,171.8L25.52,184.44L25.76,180.8L26,184.54L26.23,177.44L26.47,188.45L26.71,189L26.95,189.29L27.19,187.73L27.43,188.82L27.67,181L27.9,177.51L28.14,161.63L28.38,156.78L28.62,187.39L28.86,186.96L29.1,138.87L29.33,133L29.57,188.65L30.05,158.48L30.29,182.32L30.53,168.36L30.77,128.18L31.24,163.7L31.48,176.83L31.72,125.57L31.96,174.5L32.2,185.63L32.44,159.13L32.91,179.96L33.15,179.8L33.39,177.92L33.63,187.27L34.82,162.36L35.06,187.94L35.3,186.11L35.54,171.22L36.01,187.59L36.49,185.3L36.73,188.69L37.68,159.24L37.92,180.11L38.16,170.51L38.4,181.21L38.64,174.32L38.87,184.46L39.11,183.61L39.35,164.26L39.59,184.77L40.07,170.53L40.31,174.1L40.54,188.6L40.78,160.75L41.02,187.47L41.26,178.7L41.97,188.84L42.21,188.77L42.45,160.21L42.93,186.13L43.41,180.2L43.64,170.73L44.84,189.86L45.08,189.02L46.03,182.85L46.27,187.16L46.51,187.17L46.74,188.98L47.46,189.59L47.7,188.39L47.94,190.03L48.41,189.93L48.65,183.19L49.13,190.6L49.37,177.53L49.85,186.36L50.08,169.92L50.32,162.15L50.56,189.08L50.8,189.44L51.04,184.85L51.28,153.97L51.51,189.05L51.75,183.1L51.99,188.13L52.23,180.77L52.71,186.62L52.95,188.82L53.66,189.4L53.9,180.83L54.14,190.2L54.38,189.49L54.62,176.84L55.09,185.69L55.33,178.44L55.57,180.22L55.81,186.68L56.28,180.88L56.52,164.54L57,188.9L57.48,188.34L57.72,183.6L58.43,162.99L58.67,165.06L58.91,184.95L59.15,121.7L59.62,166.75L59.86,176L60.1,167L60.34,181.15L60.58,188.19L60.82,168.85L61.29,181.87L61.53,181.35L61.77,164.03L62.01,186.24L62.25,183.77L62.49,167.36L62.96,181.17L63.2,187.7L63.44,181.54L63.92,182.49L64.15,183.19L64.63,188.12L64.87,181.42L65.11,180.82L65.35,176.79L65.59,177.44L65.82,187.78L66.3,172.72L66.54,189.25L66.78,181.52L67.26,190.07L67.49,181.85L67.73,182.11L67.97,181.82L68.21,188.28L68.45,181.23L68.92,183.02L69.16,190.38L69.4,190.33L69.64,185.83L69.88,183.17L70.12,171.07L70.83,189.79L71.07,166.5L71.31,155.24L71.55,184.45L71.79,188L72.03,186.41L72.26,159.65L72.5,190.43L73.22,188.04L73.46,187.76L73.69,179.07L73.93,188.3L74.17,185.92L74.41,187.4L74.65,184.49L74.89,189.98L75.13,189.92L75.36,188.63L75.6,189.68L75.84,176.99L76.08,188.85L76.79,188.48L77.03,186.63L77.99,189.84L78.23,178.72L78.46,178.19L78.7,186.34L78.94,190.61L79.42,190.36L79.66,189.59L79.9,181.3L80.37,190.27L80.61,183.32L81.33,190.39L81.56,190.26L81.8,175.52L82.04,189.12L82.52,187.13L82.76,171.29L83,190.38L83.47,186.19L83.71,186.68L83.95,186.11L84.19,189.67L84.43,186.88L84.67,190.51L84.9,188.3L85.14,190.19L85.38,190.61L85.86,190.33L86.1,186.25L87.05,190.81L87.29,187.59L87.77,190.74L88,187.89L88.24,169.87L88.48,190.46L88.96,186.01L89.2,185.28L89.44,177.58L89.67,189.89L89.91,188.44L90.39,190.67L90.63,184.2L90.87,190.48L91.34,187.46L91.58,188.82L91.82,189.05L92.06,188.14L92.54,179.62L93.01,181.72L93.25,161.78L93.49,105.12L93.73,176.24L93.97,170.39L94.21,142.41L94.44,180.62L94.68,165.98L94.92,168.22L95.16,149.49L95.4,161.95L95.64,186.18L95.87,186.49L96.11,162.73L96.59,185.84L97.07,183.73L97.31,179.75L97.54,167.96L98.02,180.88L98.26,186.08L98.74,177.1L98.97,159.76L99.45,189.07L99.69,186.23L99.93,182.54L100.17,183.8L100.41,175.49L100.64,188.51L101.12,181.33L101.36,181.69L101.6,189.18L102.08,188.29L102.31,176.15L103.74,190.33L103.98,189.17L104.7,189.72L104.94,171.6L105.18,176.24L105.41,188.22L105.65,185.97L105.89,189.02L106.13,188.68L106.61,188.8L106.85,178.02L107.08,190.33L107.8,172.72L108.04,189.73L108.28,190.07L108.51,188.85L108.75,187.31L108.99,174.4L109.47,189.82L109.71,189.2L109.95,183.14L110.18,190.23L110.66,187.67L110.9,188.53L111.62,184.67L111.85,190.04L112.09,190.5L112.33,188.98L112.57,181.65L112.81,182.33L113.05,190.61L113.28,186.58L113.52,190.74L113.76,188.88L114,190.81L114.24,190.62L114.48,180.08L114.72,190.66L115.19,187.7L115.43,182.86L115.67,189.9L115.91,189.19L116.15,170.42L116.86,190.67L117.1,182.63L117.34,190.63L117.58,189.24L117.82,178.34L118.05,175.04L118.29,183.46L119.01,182.9L119.25,190.64L119.49,174.48L119.96,189.34L120.44,187.99L120.68,188.18L120.92,185.44L121.15,186.26L121.39,189.55L121.63,177.2L121.87,190.03L122.11,189.99L122.35,189.95L122.59,182.34L123.06,190.1L123.3,187.63L124.26,190.65L124.49,189.82L124.73,190.8L124.97,190.27L125.21,187.18L125.69,190.28L125.92,187.28L126.16,186.32L126.4,190.73L126.88,190.62L127.12,183.52L127.36,190.64L127.59,157.38L128.07,189.84L128.55,189.56L128.79,190.21L129.03,190.07L129.26,190.6L129.5,186.77L129.74,171.88L130.22,183.77L130.46,180.34L131.41,190.69L131.65,186.52L131.89,190.35L132.13,186.78L132.36,184.72L133.08,190.52L133.32,188.89L133.56,182.1L133.79,190.73L134.03,184.66L134.27,189.96L135.23,179.93L135.46,189.8L135.7,189.84L135.94,184.62L136.18,189.99L136.42,182.93L136.66,188.86L136.9,188.2L137.13,183.62L137.37,190.2L137.61,188.97L137.85,190.73L138.8,190.5L139.04,189.55L139.28,184.47L139.52,190.82L139.76,190.72L140,190.57L140.23,182.67L140.47,189.73L140.71,178.58L141.19,189.57L141.43,190.36L143.81,190.93L144.05,189.79L144.53,190.57L145,187.45L145.24,190.08L145.48,190.02L145.72,174.89L145.96,190.88L146.44,181.15L146.67,181.44L146.91,190.14L147.15,159.41L147.39,190.9L147.87,185.75L148.1,165.73L148.34,190.85L148.58,188.51L148.82,116.04L149.06,184.98L149.77,183.68L150.01,183.83L150.25,188.3L150.49,179.7L150.73,159.51L151.21,186.21L151.44,182.8L151.68,177.88L151.92,163L152.16,173.2L152.4,188.64L153.35,176.31L153.59,185.23L153.83,188.29L154.07,177.45L154.31,176.65L154.54,188.69L154.78,183.39L155.26,188.9L155.5,186.46L156.69,190.08L156.93,182.49L157.17,182.04L157.41,190.41L157.88,190.31L158.12,179.44L158.6,189.86L158.84,187.96L159.08,172.68L159.79,189.89L160.03,187.47L160.27,189.64L160.51,190.49L160.74,181.03L160.98,189.94L161.46,189.91L161.7,186.6L161.94,169.19L162.18,190.24L162.41,189.12L162.65,190.57L162.89,189.17L163.13,190.8L163.37,190.45L163.61,190.79L164.56,190.53L164.8,190.66L165.51,188.62L165.75,190.72L166.71,190.72L166.95,189.01L167.42,190.89L167.66,187.88L168.62,190.83L168.85,190.48L169.09,190.61L169.33,189.89L169.57,189.8L170.52,190.82L170.76,190.5L171,190.77" style="vector-effect: non-scaling-stroke; fill: none; stroke: rgb(31, 119, 180); stroke-opacity: 1; stroke-width: 2px; opacity: 1;"/></g><g class="points"/><g class="text"/></g><g class="trace scatter trace1d4ec0" style="stroke-miterlimit: 2; opacity: 1;"><g class="fills"/><g class="errorbars"/><g class="lines"><path class="js-line" d="M0,190.95L0.95,85.43L1.19,94.47L1.67,112.56L1.91,43.22L2.38,34.17L2.62,43.22L2.86,46.23L3.82,28.14L4.05,43.22L4.29,70.35L4.53,22.11L4.77,52.26L5.01,31.16L5.25,34.17L5.49,28.14L5.72,28.14L5.96,19.1L6.2,43.22L6.92,13.07L7.15,31.16L7.39,61.31L7.63,13.07L7.87,22.11L8.11,25.13L8.35,19.1L8.59,61.31L9.06,19.1L9.54,28.14L9.78,19.1L10.02,25.13L10.26,70.35L10.97,13.07L11.21,22.11L11.45,31.16L11.69,16.08L11.92,22.11L12.16,46.23L13.36,16.08L13.59,19.1L13.83,13.07L14.07,22.11L14.31,34.17L15.26,16.08L15.5,10.05L15.74,10.05L15.98,19.1L16.22,25.13L16.46,19.1L16.69,13.07L16.93,19.1L17.17,13.07L17.41,10.05L18.13,19.1L18.36,16.08L18.6,16.08L19.32,28.14L19.56,25.13L19.79,19.1L20.27,13.07L20.51,16.08L20.75,16.08L21.23,22.11L21.46,10.05L21.94,22.11L22.18,19.1L22.42,10.05L22.9,34.17L23.13,16.08L23.61,16.08L23.85,10.05L24.09,10.05L24.33,16.08L25.52,10.05L25.76,10.05L26,10.05L26.23,13.07L27.19,10.05L27.43,10.05L27.67,10.05L27.9,13.07L28.38,31.16L28.62,10.05L28.86,10.05L29.1,22.11L29.33,22.11L29.57,10.05L30.05,43.22L30.29,13.07L30.53,19.1L30.77,25.13L31.24,19.1L31.48,16.08L31.72,64.32L32.2,10.05L32.44,19.1L32.67,22.11L32.91,13.07L33.39,13.07L33.63,10.05L34.1,22.11L34.34,13.07L34.58,13.07L34.82,19.1L35.06,10.05L35.3,10.05L35.54,16.08L36.01,10.05L36.25,10.05L36.73,10.05L36.97,16.08L37.21,10.05L37.44,13.07L37.68,19.1L38.4,13.07L38.64,16.08L39.59,13.07L39.83,13.07L40.31,16.08L40.54,10.05L40.78,31.16L41.26,13.07L41.5,10.05L41.74,10.05L41.97,13.07L42.21,10.05L42.45,19.1L42.93,13.07L43.17,22.11L43.64,22.11L43.88,13.07L44.12,13.07L44.36,10.05L44.6,16.08L45.08,10.05L45.31,10.05L45.79,10.05L46.03,16.08L46.98,10.05L47.22,10.05L48.41,10.05L48.65,13.07L48.89,13.07L49.13,10.05L50.32,16.08L50.56,10.05L50.8,10.05L51.04,13.07L51.51,10.05L51.75,19.1L51.99,10.05L52.23,13.07L52.71,10.05L52.95,10.05L53.9,22.11L54.14,10.05L54.38,10.05L54.62,13.07L55.09,10.05L55.33,18.66L55.57,19.1L55.81,16.08L56.28,13.07L56.52,19.1L57,10.05L57.24,22.11L58.19,13.07L58.43,16.08L58.91,16.08L59.15,43.22L59.86,13.07L60.1,16.08L60.34,13.07L60.58,10.05L60.82,16.08L61.05,16.08L61.29,13.07L61.53,19.1L61.77,19.1L62.25,10.05L62.49,16.08L62.72,16.08L63.2,10.05L63.68,13.07L63.92,13.07L64.15,13.07L64.39,10.05L64.63,10.05L64.87,16.08L65.82,10.05L66.06,19.1L66.3,25.13L66.54,10.05L67.02,13.07L67.26,10.05L67.49,10.05L68.69,16.08L68.92,16.08L69.64,10.05L69.88,13.07L70.12,16.08L70.59,13.07L70.83,10.05L71.31,25.13L71.55,13.07L71.79,10.05L72.03,10.05L72.26,13.07L73.22,10.05L73.46,10.05L73.69,16.08L74.17,10.05L74.41,10.05L74.65,16.08L75.13,10.05L75.36,10.05L75.6,10.05L75.84,13.07L76.56,10.05L76.79,13.07L77.03,16.08L77.51,13.07L77.75,10.05L77.99,10.05L78.23,13.07L78.46,13.07L78.7,10.05L78.94,10.05L79.18,13.07L80.13,10.05L80.37,10.05L81.09,13.07L81.33,10.05L81.56,10.05L81.8,19.1L82.52,10.05L82.76,16.08L83.23,10.05L83.47,13.07L83.71,13.07L83.95,13.07L84.19,10.05L85.86,10.05L86.1,16.08L87.05,10.05L87.29,16.08L88.48,10.05L88.72,13.07L89.44,13.07L89.67,10.05L90.39,10.05L90.63,16.08L91.58,10.05L91.82,10.05L92.77,19.1L93.01,13.07L93.49,28.14L93.73,13.07L94.21,34.17L94.44,16.08L94.68,16.08L95.16,22.11L95.4,16.08L95.64,10.05L95.87,10.05L96.11,34.17L97.07,10.05L97.31,13.07L97.54,16.08L98.02,13.07L98.26,10.05L98.97,22.11L99.21,10.05L99.69,10.05L99.93,13.07L100.41,13.07L100.64,10.05L100.88,10.05L101.12,13.07L101.36,19.1L101.6,10.05L101.84,13.07L102.08,10.05L102.31,16.08L102.79,13.07L103.03,10.05L103.27,13.07L103.74,10.05L103.98,10.05L104.94,16.08L105.18,13.07L106.13,10.05L106.37,19.1L107.08,10.05L107.32,16.08L108.28,10.05L108.51,13.07L108.75,13.07L108.99,19.1L110.18,10.05L110.42,10.05L110.9,10.05L111.14,13.07L111.62,13.07L111.85,10.05L112.33,10.05L112.57,13.07L112.81,13.07L113.05,10.05L113.76,13.07L114,10.05L114.24,10.05L114.48,13.07L115.43,10.05L115.67,10.05L115.91,10.05L116.15,16.08L117.34,10.05L117.58,10.05L118.29,13.07L118.53,10.05L118.77,10.05L119.01,16.08L119.96,10.05L120.2,13.07L120.44,13.07L120.68,10.05L121.63,16.08L121.87,10.05L122.35,10.05L122.59,13.07L123.54,10.05L123.78,10.05L125.69,10.05L125.92,13.07L126.16,13.07L126.4,10.05L126.88,10.05L127.12,13.07L127.59,16.08L128.07,10.05L128.31,10.05L128.55,13.07L129.03,10.05L129.26,10.05L129.5,10.05L129.74,13.07L130.22,13.07L130.46,16.08L131.41,10.05L131.65,10.05L131.89,10.05L132.13,13.07L132.36,13.07L132.6,10.05L133.56,13.07L133.79,10.05L134.75,13.07L134.99,10.05L135.23,19.1L135.7,10.05L135.94,10.05L136.18,10.05L136.42,13.07L136.66,10.05L136.9,13.07L137.13,16.08L138.09,10.05L138.33,10.05L139.04,10.05L139.28,13.07L140,10.05L140.23,16.08L141.19,10.05L141.43,10.05L144.77,10.05L145,13.07L145.96,10.05L146.2,10.05L146.67,13.07L146.91,10.05L147.15,28.14L147.87,10.05L148.1,19.1L148.34,10.05L148.58,13.07L148.82,40.2L149.77,13.07L150.01,13.07L150.25,13.07L150.49,19.1L150.73,34.17L150.97,16.08L151.21,10.05L151.44,10.05L151.68,13.07L151.92,22.11L152.16,16.08L152.4,10.05L153.35,25.13L153.59,10.05L153.83,10.05L154.07,13.07L154.31,13.07L154.54,10.05L155.5,13.07L155.74,13.07L155.97,13.07L156.21,10.05L156.69,10.05L156.93,13.07L157.17,16.08L157.41,10.05L157.64,10.05L157.88,10.05L158.12,16.08L159.31,10.05L159.55,13.07L160.51,10.05L160.74,13.07L161.46,10.05L161.7,13.07L161.94,16.08L162.18,10.05L162.41,10.05L166.71,10.05L166.95,13.07L167.9,10.05L168.14,10.05L171,10.05" style="vector-effect: non-scaling-stroke; fill: none; stroke: rgb(255, 127, 14); stroke-opacity: 1; stroke-width: 2px; opacity: 1;"/></g><g class="points"/><g class="text"/></g></g></g><g class="overplot"/><path class="xlines-above crisp" d="M0,0" style="fill: none;"/><path class="ylines-above crisp" d="M0,0" style="fill: none;"/><g class="overlines-above"/><g class="xaxislayer-above"><g class="xtick"><text text-anchor="middle" x="0" y="274" transform="translate(60,0)" style="font-family: 'Open Sans', verdana, arial, sans-serif; font-size: 12px; fill: rgb(68, 68, 68); fill-opacity: 1; white-space: pre;">0</text></g><g class="xtick"><text text-anchor="middle" x="0" y="274" transform="translate(107.7,0)" style="font-family: 'Open Sans', verdana, arial, sans-serif; font-size: 12px; fill: rgb(68, 68, 68); fill-opacity: 1; white-space: pre;">200</text></g><g class="xtick"><text text-anchor="middle" x="0" y="274" transform="translate(155.4,0)" style="font-family: 'Open Sans', verdana, arial, sans-serif; font-size: 12px; fill: rgb(68, 68, 68); fill-opacity: 1; white-space: pre;">400</text></g><g class="xtick"><text text-anchor="middle" x="0" y="274" transform="translate(203.1,0)" style="font-family: 'Open Sans', verdana, arial, sans-serif; font-size: 12px; fill: rgb(68, 68, 68); fill-opacity: 1; white-space: pre;">600</text></g></g><g class="yaxislayer-above"><g class="ytick"><text text-anchor="end" x="59" y="4.199999999999999" transform="translate(0,250.95)" style="font-family: 'Open Sans', verdana, arial, sans-serif; font-size: 12px; fill: rgb(68, 68, 68); fill-opacity: 1; white-space: pre;">0</text></g><g class="ytick"><text text-anchor="end" x="59" y="4.199999999999999" transform="translate(0,214.77)" style="font-family: 'Open Sans', verdana, arial, sans-serif; font-size: 12px; fill: rgb(68, 68, 68); fill-opacity: 1; white-space: pre;">0.2</text></g><g class="ytick"><text text-anchor="end" x="59" y="4.199999999999999" transform="translate(0,178.59)" style="font-family: 'Open Sans', verdana, arial, sans-serif; font-size: 12px; fill: rgb(68, 68, 68); fill-opacity: 1; white-space: pre;">0.4</text></g><g class="ytick"><text text-anchor="end" x="59" y="4.199999999999999" transform="translate(0,142.41)" style="font-family: 'Open Sans', verdana, arial, sans-serif; font-size: 12px; fill: rgb(68, 68, 68); fill-opacity: 1; white-space: pre;">0.6</text></g><g class="ytick"><text text-anchor="end" x="59" y="4.199999999999999" transform="translate(0,106.22999999999999)" style="font-family: 'Open Sans', verdana, arial, sans-serif; font-size: 12px; fill: rgb(68, 68, 68); fill-opacity: 1; white-space: pre;">0.8</text></g><g class="ytick"><text text-anchor="end" x="59" y="4.199999999999999" transform="translate(0,70.05)" style="font-family: 'Open Sans', verdana, arial, sans-serif; font-size: 12px; fill: rgb(68, 68, 68); fill-opacity: 1; white-space: pre;">1</text></g></g><g class="overaxes-above"/></g></g><g class="polarlayer"/><g class="ternarylayer"/><g class="geolayer"/><g class="funnelarealayer"/><g class="pielayer"/><g class="treemaplayer"/><g class="sunburstlayer"/><g class="glimages"/><defs id="topdefs-883307"><g class="clips"/><clipPath id="legend883307"><rect width="99" height="48" x="0" y="0"/></clipPath></defs><g class="layer-above"><g class="imagelayer"/><g class="shapelayer"/></g><g class="infolayer"><g class="legend" pointer-events="all" transform="translate(234.42000000000002, 60)"><rect class="bg" shape-rendering="crispEdges" width="99" height="48" x="0" y="0" style="stroke: rgb(68, 68, 68); stroke-opacity: 1; fill: rgb(255, 255, 255); fill-opacity: 1; stroke-width: 0px;"/><g class="scrollbox" transform="translate(0, 0)" clip-path="url('#legend883307')"><g class="groups"><g class="traces" transform="translate(0, 14.5)" style="opacity: 1;"><text class="legendtext" text-anchor="start" x="40" y="4.680000000000001" style="font-family: 'Open Sans', verdana, arial, sans-serif; font-size: 12px; fill: rgb(68, 68, 68); fill-opacity: 1; white-space: pre;">train-loss</text><g class="layers" style="opacity: 1;"><g class="legendfill"/><g class="legendlines"><path class="js-line" d="M5,0h30" style="fill: none; stroke: rgb(31, 119, 180); stroke-opacity: 1; stroke-width: 2px;"/></g><g class="legendsymbols"><g class="legendpoints"/></g></g><rect class="legendtoggle" x="0" y="-9.5" width="93.82812881469727" height="19" style="fill: rgb(0, 0, 0); fill-opacity: 0;"/></g><g class="traces" transform="translate(0, 33.5)" style="opacity: 1;"><text class="legendtext" text-anchor="start" x="40" y="4.680000000000001" style="font-family: 'Open Sans', verdana, arial, sans-serif; font-size: 12px; fill: rgb(68, 68, 68); fill-opacity: 1; white-space: pre;">acc</text><g class="layers" style="opacity: 1;"><g class="legendfill"/><g class="legendlines"><path class="js-line" d="M5,0h30" style="fill: none; stroke: rgb(255, 127, 14); stroke-opacity: 1; stroke-width: 2px;"/></g><g class="legendsymbols"><g class="legendpoints"/></g></g><rect class="legendtoggle" x="0" y="-9.5" width="93.82812881469727" height="19" style="fill: rgb(0, 0, 0); fill-opacity: 0;"/></g></g></g><rect class="scrollbar" rx="20" ry="3" width="0" height="0" x="0" y="0" style="fill: rgb(128, 139, 164); fill-opacity: 1;"/></g><g class="g-gtitle"><text class="gtitle" x="172.5" y="30" text-anchor="middle" dy="0em" style="font-family: 'Open Sans', verdana, arial, sans-serif; font-size: 17px; fill: rgb(68, 68, 68); opacity: 1; font-weight: normal; white-space: pre;">train loss</text></g><g class="g-xtitle"/><g class="g-ytitle"/></g></svg>