<svg class="main-svg" xmlns="http://www.w3.org/2000/svg" xmlns:xlink="http://www.w3.org/1999/xlink" width="370.99" height="335.99" style="" viewBox="0 0 370.99 335.99"><rect x="0" y="0" width="370.99" height="335.99" style="fill: rgb(255, 255, 255); fill-opacity: 1;"/><defs id="defs-302fed"><g class="clips"><clipPath id="clip302fedxyplot" class="plotclip"><rect width="196" height="216"/></clipPath><clipPath class="axesclip" id="clip302fedx"><rect x="60" y="0" width="196" height="335.99"/></clipPath><clipPath class="axesclip" id="clip302fedy"><rect x="0" y="60" width="370.99" height="216"/></clipPath><clipPath class="axesclip" id="clip302fedxy"><rect x="60" y="60" width="196" height="216"/></clipPath></g><g class="gradients"/></defs><g class="bglayer"/><g class="layer-below"><g class="imagelayer"/><g class="shapelayer"/></g><g class="cartesianlayer"><g class="subplot xy"><g class="layer-subplot"><g class="shapelayer"/><g class="imagelayer"/></g><g class="gridlayer"><g class="x"><path class="xgrid crisp" transform="translate(129.38,0)" d="M0,60v216" style="stroke: rgb(238, 238, 238); stroke-opacity: 1; stroke-width: 1px;"/><path class="xgrid crisp" transform="translate(198.76,0)" d="M0,60v216" style="stroke: rgb(238, 238, 238); stroke-opacity: 1; stroke-width: 1px;"/></g><g class="y"><path class="ygrid crisp" transform="translate(0,226.32)" d="M60,0h196" style="stroke: rgb(238, 238, 238); stroke-opacity: 1; stroke-width: 1px;"/><path class="ygrid crisp" transform="translate(0,187.44)" d="M60,0h196" style="stroke: rgb(238, 238, 238); stroke-opacity: 1; stroke-width: 1px;"/><path class="ygrid crisp" transform="translate(0,148.56)" d="M60,0h196" style="stroke: rgb(238, 238, 238); stroke-opacity: 1; stroke-width: 1px;"/><path class="ygrid crisp" transform="translate(0,109.68)" d="M60,0h196" style="stroke: rgb(238, 238, 238); stroke-opacity: 1; stroke-width: 1px;"/><path class="ygrid crisp" transform="translate(0,70.8)" d="M60,0h196" style="stroke: rgb(238, 238, 238); stroke-opacity: 1; stroke-width: 1px;"/></g></g><g class="zerolinelayer"><path class="xzl zl crisp" transform="translate(60,0)" d="M0,60v216" style="stroke: rgb(68, 68, 68); stroke-opacity: 1; stroke-width: 1px;"/><path class="yzl zl crisp" transform="translate(0,265.2)" d="M60,0h196" style="stroke: rgb(68, 68, 68); stroke-opacity: 1; stroke-width: 1px;"/></g><path class="xlines-below"/><path class="ylines-below"/><g class="overlines-below"/><g class="xaxislayer-below"/><g class="yaxislayer-below"/><g class="overaxes-below"/><g class="plot" transform="translate(60, 60)" clip-path="url('#clip302fedxyplot')"><g class="scatterlayer mlayer"><g class="trace scatter tracea78acf" style="stroke-miterlimit: 2; opacity: 1;"><g class="fills"/><g class="errorbars"/><g class="lines"><path class="js-line" d="M0,205.2L0.35,70.73L1.04,82.86L1.39,87.54L1.73,77.89L2.08,97.56L2.78,119.7L3.12,108.72L3.47,117.86L3.82,108.67L4.16,112.18L4.51,128.58L4.86,113.56L5.2,118.74L5.55,135.4L5.9,133.1L6.24,123.91L6.59,127.49L6.94,146.67L7.28,131.87L7.63,148.61L7.98,138.46L8.33,119.73L8.67,128.22L9.02,142.29L9.37,143.57L9.71,81.5L10.06,159.22L10.75,146.35L11.1,155.62L11.45,157L11.79,156.59L12.14,141.17L12.84,168.64L13.18,131.35L14.22,164.26L14.57,156.79L14.92,159.29L15.26,124.64L15.96,170.61L16.65,168.44L17,169.01L17.35,157.55L17.69,163.64L18.04,165.18L18.39,155.77L18.73,179.61L19.43,167.33L19.77,188.28L20.47,180.94L20.81,150.59L21.16,177.31L21.51,162.61L21.85,160.73L22.2,197.86L22.55,180.62L22.9,190.44L23.59,174.21L23.94,174.93L24.28,174.52L24.98,200.32L25.32,149.52L26.02,197.34L26.36,183.13L26.71,175.28L27.06,197.67L27.41,189.1L27.75,205.04L28.45,112.96L28.79,165.27L29.14,178.14L29.49,162.54L30.18,197.45L30.53,181.64L30.87,201.2L31.22,183.14L31.57,181.65L32.26,199.17L32.61,174.57L32.96,166.32L33.3,191.36L33.65,196.19L34,172.27L34.69,202.52L35.04,190L35.38,182.73L36.08,194.34L36.42,185.03L36.77,170.72L37.12,180.79L37.47,198.21L37.81,202.91L38.16,201.92L38.51,193.63L39.2,175.95L39.55,183.95L39.89,203.32L40.24,193.64L40.59,199.34L40.93,190.93L41.28,195.19L41.63,199.94L41.98,198.53L42.32,184.9L43.36,204.15L43.71,203.31L44.06,194.15L44.4,204.59L44.75,168.69L46.14,195.07L46.48,165.52L47.18,201.77L47.53,198.53L47.87,201.4L48.22,191.54L48.57,192.17L48.91,200.6L49.26,203.42L49.61,191.94L49.95,184.75L50.3,195.31L50.65,193.86L50.99,182.28L52.04,198.14L52.38,196.73L52.73,200.63L53.08,199.74L53.42,194.71L53.77,201L54.12,176.53L54.81,201.46L55.16,201.26L55.5,199.92L56.2,202.75L56.55,192.86L56.89,202.63L57.24,185.82L57.59,203.74L57.93,175.83L58.97,204.52L59.32,201.08L59.67,204.44L60.01,195.91L60.36,201.21L60.71,199.71L61.05,176.55L61.4,204.47L61.75,196.87L62.1,199.74L62.44,204.41L62.79,204.23L63.14,181.47L63.48,204.33L64.18,202.42L64.52,204.51L64.87,204.01L65.22,200.78L65.56,204.56L65.91,204.01L66.26,199.65L66.61,199.47L66.95,204.27L67.3,204.55L67.65,202.16L67.99,204.92L68.34,203.45L68.69,204.43L69.03,198L69.38,201.53L69.73,203.83L70.07,204.83L70.42,188.71L71.12,203.95L71.46,201.93L71.81,204.97L72.16,185.47L72.5,190.42L72.85,201.35L73.89,188.43L74.24,197.55L74.58,193.01L74.93,201.29L75.28,204.64L75.62,200.81L75.97,170.22L76.32,204.58L76.67,153.74L78.05,202.79L78.4,197.32L78.75,158.39L79.09,183.76L79.44,195.07L80.48,203.54L80.83,202.23L81.52,178.04L81.87,202.66L82.22,204.03L82.56,195.44L83.26,202.65L83.6,202.21L83.95,195.19L84.3,203.2L84.99,202.45L85.34,201.72L85.68,203.98L86.03,199.16L86.73,204.79L87.07,202.47L87.77,204.86L88.11,188.73L88.81,204.7L89.15,162.95L89.5,202.6L90.19,196.63L90.54,197.57L90.89,201.34L91.24,196.26L91.58,195.95L91.93,204L92.28,204.78L92.62,202.84L93.32,203.16L93.66,200.39L94.7,204.26L95.05,204.23L96.44,204.63L96.79,202.08L97.13,205.09L97.83,204.95L98.17,205.06L98.52,204.64L98.87,200.95L99.21,201.03L99.56,195.16L100.25,205.07L100.6,204.75L100.95,205.12L101.64,202.46L101.99,203.55L102.34,191.64L102.68,202.12L103.03,204.89L103.72,204.92L104.07,183.17L104.42,192.52L105.46,204.56L105.81,201.49L106.15,204.65L106.85,204.47L107.19,203.38L107.54,186.04L107.89,204.65L108.23,204.2L108.93,203.26L109.27,198.87L109.62,199.98L109.97,203.97L110.32,204.91L110.66,204.18L111.01,204.22L111.7,204.8L112.05,194.75L112.4,192.82L112.74,205.02L113.09,202.08L113.44,204.19L113.78,189.69L114.13,203.51L114.48,200.11L114.82,199.95L115.17,205.03L115.52,193.33L115.87,172.28L116.21,192.75L116.56,205.15L116.91,204.97L117.25,203.41L117.6,201.79L117.95,203.4L118.29,192.13L119.33,204.64L119.68,201.91L120.03,204.74L120.38,201.03L120.72,204.92L121.07,200.04L122.11,204.9L122.46,205.02L123.15,204.39L123.5,195.82L124.54,204.92L124.88,201.69L125.93,205.09L126.27,203.43L127.31,204.96L127.66,204.57L128.35,205.06L128.7,193.51L129.05,198.71L129.39,205.05L130.09,204.35L130.44,203.48L130.78,182.18L131.13,204.33L131.48,200.35L131.82,198.4L132.17,202.9L132.52,161.95L132.86,184.49L133.21,204.27L133.9,204.64L134.25,198.34L134.95,188.67L135.29,203.05L135.99,204.94L136.33,201.27L136.68,175.13L137.03,200.18L137.37,204.95L138.41,204.1L138.76,204.95L139.45,196.92L139.8,203.71L140.15,202.45L140.5,203.64L140.84,203.98L141.19,198.68L141.54,204.96L142.58,200.48L142.92,204.94L143.27,204.76L143.62,198.62L144.66,204.89L145.01,204.78L145.35,204.23L145.7,204.77L146.05,202.83L146.39,204.96L146.74,204.69L147.09,204.54L149.17,204.8L149.52,205.07L153.33,204.92L153.68,202.95L154.72,205.16L155.07,205.17L155.41,203.26L155.76,205.15L156.11,205.14L157.15,205.08L157.49,205.1L160.96,205.19L161.31,204.55L162.35,205.19L162.7,205.2L168.59,205.19L168.94,202.83L169.98,205.2L170.33,204.99L170.68,200.41L171.02,205.2L171.37,205.2L172.06,205.14L172.41,204.12L172.76,190.24L173.1,205.09L173.45,205.16L174.15,199.36L174.49,200.55L174.84,205.19L175.53,205.19L175.88,193.46L176.23,196.01L176.57,205.07L176.92,201.77L177.27,205.18L177.61,190.14L178.65,205.16L179,203.7L179.35,202.95L179.7,197L180.74,204.45L181.08,204.43L181.43,198.38L181.78,205.08L182.12,198.55L182.47,201.15L182.82,205.02L183.16,204.45L183.51,196.25L184.55,204.91L184.9,205.05L185.25,204.21L185.59,205.08L185.94,190.14L186.63,205.14L186.98,201.27L187.33,205.01L187.67,204.17L188.02,204.07L189.06,205.04L189.41,204.78L191.84,205.14L192.18,193.4L193.22,205.06L193.57,199.83L194.27,205.18L194.61,204.94L194.96,205.17L196,205.17" style="vector-effect: non-scaling-stroke; fill: none; stroke: rgb(31, 119, 180); stroke-opacity: 1; stroke-width: 2px; opacity: 1;"/></g><g class="points"/><g class="text"/></g><g class="trace scatter trace95766b" style="stroke-miterlimit: 2; opacity: 1;"><g class="fills"/><g class="errorbars"/><g class="lines"><path class="js-line" d="M0,205.2L0.35,133.92L0.69,166.32L1.04,156.6L1.39,143.64L1.73,72.36L2.78,39.96L3.12,33.48L3.47,36.72L3.82,52.92L4.51,27L4.86,43.2L5.9,23.76L6.24,33.48L6.59,39.96L6.94,33.48L7.28,36.72L7.63,20.52L7.98,27L8.33,30.24L8.67,46.44L9.02,36.72L9.37,14.04L9.71,39.96L10.06,23.76L10.41,20.52L11.1,36.72L11.45,27L12.14,27L12.49,17.28L12.84,14.04L13.18,39.96L14.92,20.52L15.26,27L15.61,27L15.96,14.04L16.3,30.24L16.65,17.28L17,23.76L17.35,23.76L17.69,20.52L18.04,17.28L18.39,27L19.08,23.76L19.43,30.24L19.77,14.04L20.12,17.28L20.47,20.52L20.81,20.52L21.16,27L21.51,33.48L21.85,27L22.2,10.8L23.94,30.24L24.28,30.24L24.98,10.8L25.32,27L26.02,14.04L26.36,23.76L26.71,23.76L27.06,14.04L27.41,17.28L27.75,10.8L28.45,36.72L28.79,20.52L29.14,23.76L29.49,46.44L30.53,14.04L30.87,10.8L31.57,20.52L31.92,10.8L32.26,10.8L32.61,20.52L33.3,27L33.65,14.04L34,27L34.34,17.28L34.69,10.8L35.38,17.28L35.73,14.04L36.08,14.04L36.42,17.28L36.77,20.52L37.12,17.28L37.47,14.04L38.16,10.8L38.51,20.52L39.89,10.8L40.24,17.28L40.59,10.8L40.93,17.28L41.28,14.04L41.98,14.04L42.32,23.76L43.36,10.8L43.71,10.8L44.06,14.04L44.4,10.8L44.75,23.76L46.14,14.04L46.48,23.76L47.18,10.8L47.53,14.04L47.87,10.8L48.57,23.76L48.91,14.04L49.26,10.8L49.61,14.04L49.95,17.28L50.99,14.04L51.34,17.28L51.69,20.52L52.04,17.28L52.38,17.28L53.08,10.8L53.42,14.04L53.77,10.8L54.12,20.52L54.81,10.8L55.16,14.04L55.5,10.8L56.55,14.04L56.89,10.8L57.93,20.52L58.28,10.8L59.67,10.8L60.01,14.04L60.36,10.8L60.71,14.04L61.05,17.28L62.1,10.8L62.44,10.8L62.79,10.8L63.14,17.28L63.48,10.8L63.83,14.04L64.18,14.04L65.22,10.8L65.56,10.8L66.26,10.8L66.61,17.28L67.65,10.8L67.99,10.8L68.69,10.8L69.03,14.04L70.07,10.8L70.42,14.04L70.77,14.04L71.12,10.8L72.16,17.28L72.5,14.04L72.85,10.8L73.2,20.52L73.54,20.52L73.89,14.04L74.93,10.8L75.28,10.8L75.62,14.04L75.97,30.24L76.32,10.8L76.67,20.52L77.01,20.52L78.05,10.8L78.4,17.28L79.09,27L79.44,14.04L80.48,10.8L80.83,10.8L81.52,20.52L81.87,10.8L82.22,10.8L82.56,14.04L82.91,14.04L83.26,10.8L83.6,10.8L83.95,14.04L84.99,10.8L85.34,10.8L85.68,10.8L86.03,14.04L86.73,10.8L87.07,14.04L87.77,10.8L88.11,14.04L88.81,10.8L89.15,20.52L90.19,14.04L90.54,14.04L90.89,10.8L91.24,14.04L91.58,14.04L92.62,10.8L92.97,10.8L93.32,10.8L93.66,14.04L94.7,10.8L95.05,10.8L98.52,10.8L98.87,14.04L99.21,10.8L99.56,17.28L100.95,10.8L101.3,10.8L102.34,14.04L102.68,14.04L103.03,10.8L103.38,17.28L103.72,10.8L104.07,14.04L104.42,14.04L105.46,10.8L105.81,14.04L106.85,10.8L107.19,10.8L107.54,17.28L107.89,10.8L108.23,10.8L108.93,10.8L109.27,17.28L110.66,10.8L111.01,10.8L112.05,10.8L112.4,14.04L113.44,10.8L113.78,14.04L114.13,10.8L114.48,14.04L114.82,17.28L115.17,10.8L115.52,14.04L115.87,20.52L116.91,10.8L117.25,14.04L117.95,10.8L118.29,20.52L119.33,10.8L119.68,10.8L120.72,10.8L121.07,14.04L122.11,10.8L122.46,10.8L123.15,10.8L123.5,17.28L124.54,10.8L124.88,10.8L127.66,10.8L128.01,14.04L128.35,10.8L128.7,14.04L129.05,14.04L130.09,10.8L130.44,10.8L130.78,17.28L131.13,10.8L131.48,14.04L131.82,14.04L132.17,10.8L132.86,17.28L133.21,10.8L133.9,10.8L134.25,14.04L134.6,14.04L134.95,17.28L135.99,10.8L136.33,10.8L136.68,20.52L137.03,10.8L137.37,10.8L138.76,10.8L139.11,14.04L139.45,17.28L139.8,10.8L140.84,10.8L141.19,14.04L142.23,10.8L142.58,14.04L143.27,10.8L143.62,14.04L143.96,14.04L144.31,10.8L168.59,10.8L168.94,14.04L169.98,10.8L170.33,10.8L172.41,10.8L172.76,17.28L173.8,10.8L174.15,14.04L175.19,10.8L175.53,10.8L176.23,14.04L176.57,10.8L177.27,10.8L177.61,14.04L178.65,10.8L179,14.04L180.39,14.04L180.74,10.8L181.08,10.8L181.43,14.04L182.47,10.8L182.82,10.8L183.16,10.8L183.51,20.52L184.55,10.8L184.9,10.8L185.59,10.8L185.94,17.28L186.63,10.8L186.98,14.04L188.02,10.8L188.37,10.8L191.84,10.8L192.18,14.04L193.22,10.8L193.57,17.28L194.61,10.8L194.96,10.8L196,10.8" style="vector-effect: non-scaling-stroke; fill: none; stroke: rgb(255, 127, 14); stroke-opacity: 1; stroke-width: 2px; opacity: 1;"/></g><g class="points"/><g class="text"/></g></g></g><g class="overplot"/><path class="xlines-above crisp" d="M0,0" style="fill: none;"/><path class="ylines-above crisp" d="M0,0" style="fill: none;"/><g class="overlines-above"/><g class="xaxislayer-above"><g class="xtick"><text text-anchor="middle" x="0" y="289" transform="translate(60,0)" style="font-family: 'Open Sans', verdana, arial, sans-serif; font-size: 12px; fill: rgb(68, 68, 68); fill-opacity: 1; white-space: pre;">0</text></g><g class="xtick"><text text-anchor="middle" x="0" y="289" transform="translate(129.38,0)" style="font-family: 'Open Sans', verdana, arial, sans-serif; font-size: 12px; fill: rgb(68, 68, 68); fill-opacity: 1; white-space: pre;">200</text></g><g class="xtick"><text text-anchor="middle" x="0" y="289" transform="translate(198.76,0)" style="font-family: 'Open Sans', verdana, arial, sans-serif; font-size: 12px; fill: rgb(68, 68, 68); fill-opacity: 1; white-space: pre;">400</text></g></g><g class="yaxislayer-above"><g class="ytick"><text text-anchor="end" x="59" y="4.199999999999999" transform="translate(0,265.2)" style="font-family: 'Open Sans', verdana, arial, sans-serif; font-size: 12px; fill: rgb(68, 68, 68); fill-opacity: 1; white-space: pre;">0</text></g><g class="ytick"><text text-anchor="end" x="59" y="4.199999999999999" transform="translate(0,226.32)" style="font-family: 'Open Sans', verdana, arial, sans-serif; font-size: 12px; fill: rgb(68, 68, 68); fill-opacity: 1; white-space: pre;">0.2</text></g><g class="ytick"><text text-anchor="end" x="59" y="4.199999999999999" transform="translate(0,187.44)" style="font-family: 'Open Sans', verdana, arial, sans-serif; font-size: 12px; fill: rgb(68, 68, 68); fill-opacity: 1; white-space: pre;">0.4</text></g><g class="ytick"><text text-anchor="end" x="59" y="4.199999999999999" transform="translate(0,148.56)" style="font-family: 'Open Sans', verdana, arial, sans-serif; font-size: 12px; fill: rgb(68, 68, 68); fill-opacity: 1; white-space: pre;">0.6</text></g><g class="ytick"><text text-anchor="end" x="59" y="4.199999999999999" transform="translate(0,109.68)" style="font-family: 'Open Sans', verdana, arial, sans-serif; font-size: 12px; fill: rgb(68, 68, 68); fill-opacity: 1; white-space: pre;">0.8</text></g><g class="ytick"><text text-anchor="end" x="59" y="4.199999999999999" transform="translate(0,70.8)" style="font-family: 'Open Sans', verdana, arial, sans-serif; font-size: 12px; fill: rgb(68, 68, 68); fill-opacity: 1; white-space: pre;">1</text></g></g><g class="overaxes-above"/></g></g><g class="polarlayer"/><g class="ternarylayer"/><g class="geolayer"/><g class="funnelarealayer"/><g class="pielayer"/><g class="treemaplayer"/><g class="sunburstlayer"/><g class="glimages"/><defs id="topdefs-302fed"><g class="clips"/><clipPath id="legend302fed"><rect width="99" height="48" x="0" y="0"/></clipPath></defs><g class="layer-above"><g class="imagelayer"/><g class="shapelayer"/></g><g class="infolayer"><g class="legend" pointer-events="all" transform="translate(259.92, 60)"><rect class="bg" shape-rendering="crispEdges" width="99" height="48" x="0" y="0" style="stroke: rgb(68, 68, 68); stroke-opacity: 1; fill: rgb(255, 255, 255); fill-opacity: 1; stroke-width: 0px;"/><g class="scrollbox" transform="translate(0, 0)" clip-path="url('#legend302fed')"><g class="groups"><g class="traces" transform="translate(0, 14.5)" style="opacity: 1;"><text class="legendtext" text-anchor="start" x="40" y="4.680000000000001" style="font-family: 'Open Sans', verdana, arial, sans-serif; font-size: 12px; fill: rgb(68, 68, 68); fill-opacity: 1; white-space: pre;">train-loss</text><g class="layers" style="opacity: 1;"><g class="legendfill"/><g class="legendlines"><path class="js-line" d="M5,0h30" style="fill: none; stroke: rgb(31, 119, 180); stroke-opacity: 1; stroke-width: 2px;"/></g><g class="legendsymbols"><g class="legendpoints"/></g></g><rect class="legendtoggle" x="0" y="-9.5" width="93.82812881469727" height="19" style="fill: rgb(0, 0, 0); fill-opacity: 0;"/></g><g class="traces" transform="translate(0, 33.5)" style="opacity: 1;"><text class="legendtext" text-anchor="start" x="40" y="4.680000000000001" style="font-family: 'Open Sans', verdana, arial, sans-serif; font-size: 12px; fill: rgb(68, 68, 68); fill-opacity: 1; white-space: pre;">acc</text><g class="layers" style="opacity: 1;"><g class="legendfill"/><g class="legendlines"><path class="js-line" d="M5,0h30" style="fill: none; stroke: rgb(255, 127, 14); stroke-opacity: 1; stroke-width: 2px;"/></g><g class="legendsymbols"><g class="legendpoints"/></g></g><rect class="legendtoggle" x="0" y="-9.5" width="93.82812881469727" height="19" style="fill: rgb(0, 0, 0); fill-opacity: 0;"/></g></g></g><rect class="scrollbar" rx="20" ry="3" width="0" height="0" x="0" y="0" style="fill: rgb(128, 139, 164); fill-opacity: 1;"/></g><g class="g-gtitle"><text class="gtitle" x="185.495" y="30" text-anchor="middle" dy="0em" style="font-family: 'Open Sans', verdana, arial, sans-serif; font-size: 17px; fill: rgb(68, 68, 68); opacity: 1; font-weight: normal; white-space: pre;">train loss</text></g><g class="g-xtitle"/><g class="g-ytitle"/></g></svg>