<svg class="main-svg" xmlns="http://www.w3.org/2000/svg" xmlns:xlink="http://www.w3.org/1999/xlink" width="370.99" height="335.99" style="" viewBox="0 0 370.99 335.99"><rect x="0" y="0" width="370.99" height="335.99" style="fill: rgb(255, 255, 255); fill-opacity: 1;"/><defs id="defs-186abf"><g class="clips"><clipPath id="clip186abfxyplot" class="plotclip"><rect width="196" height="216"/></clipPath><clipPath class="axesclip" id="clip186abfx"><rect x="60" y="0" width="196" height="335.99"/></clipPath><clipPath class="axesclip" id="clip186abfy"><rect x="0" y="60" width="370.99" height="216"/></clipPath><clipPath class="axesclip" id="clip186abfxy"><rect x="60" y="60" width="196" height="216"/></clipPath></g><g class="gradients"/></defs><g class="bglayer"/><g class="layer-below"><g class="imagelayer"/><g class="shapelayer"/></g><g class="cartesianlayer"><g class="subplot xy"><g class="layer-subplot"><g class="shapelayer"/><g class="imagelayer"/></g><g class="gridlayer"><g class="x"><path class="xgrid crisp" transform="translate(116.97999999999999,0)" d="M0,60v216" style="stroke: rgb(238, 238, 238); stroke-opacity: 1; stroke-width: 1px;"/><path class="xgrid crisp" transform="translate(173.95,0)" d="M0,60v216" style="stroke: rgb(238, 238, 238); stroke-opacity: 1; stroke-width: 1px;"/><path class="xgrid crisp" transform="translate(230.93,0)" d="M0,60v216" style="stroke: rgb(238, 238, 238); stroke-opacity: 1; stroke-width: 1px;"/></g><g class="y"><path class="ygrid crisp" transform="translate(0,226.32)" d="M60,0h196" style="stroke: rgb(238, 238, 238); stroke-opacity: 1; stroke-width: 1px;"/><path class="ygrid crisp" transform="translate(0,187.44)" d="M60,0h196" style="stroke: rgb(238, 238, 238); stroke-opacity: 1; stroke-width: 1px;"/><path class="ygrid crisp" transform="translate(0,148.56)" d="M60,0h196" style="stroke: rgb(238, 238, 238); stroke-opacity: 1; stroke-width: 1px;"/><path class="ygrid crisp" transform="translate(0,109.68)" d="M60,0h196" style="stroke: rgb(238, 238, 238); stroke-opacity: 1; stroke-width: 1px;"/><path class="ygrid crisp" transform="translate(0,70.8)" d="M60,0h196" style="stroke: rgb(238, 238, 238); stroke-opacity: 1; stroke-width: 1px;"/></g></g><g class="zerolinelayer"><path class="xzl zl crisp" transform="translate(60,0)" d="M0,60v216" style="stroke: rgb(68, 68, 68); stroke-opacity: 1; stroke-width: 1px;"/><path class="yzl zl crisp" transform="translate(0,265.2)" d="M60,0h196" style="stroke: rgb(68, 68, 68); stroke-opacity: 1; stroke-width: 1px;"/></g><path class="xlines-below"/><path class="ylines-below"/><g class="overlines-below"/><g class="xaxislayer-below"/><g class="yaxislayer-below"/><g class="overaxes-below"/><g class="plot" transform="translate(60, 60)" clip-path="url('#clip186abfxyplot')"><g class="scatterlayer mlayer"><g class="trace scatter trace56fbb8" style="stroke-miterlimit: 2; opacity: 1;"><g class="fills"/><g class="errorbars"/><g class="lines"><path class="js-line" d="M0,205.2L0.57,70.33L1.14,71.27L1.71,65.14L2.28,72.58L2.85,69.99L5.7,74.64L6.27,79.74L6.84,69.99L7.41,82.71L7.98,87.28L8.55,102.08L9.12,93.19L9.69,98.05L10.26,90.49L10.83,103.06L11.4,89.28L11.97,95.15L12.53,104.29L13.1,99.13L13.67,56.03L14.24,90.75L14.81,109.04L15.38,100.73L15.95,95.27L16.52,110.61L17.09,102.87L17.66,108.06L18.23,119.32L18.8,107.36L19.37,129.09L19.94,109.94L20.51,111.44L21.08,144.23L22.22,112.43L22.79,100.59L23.36,106.27L23.93,121.59L24.5,122.95L25.07,139.9L25.64,122.63L26.21,134.72L26.78,123.56L27.35,126.28L27.92,121.28L29.06,123.72L29.63,136.4L30.77,156.27L31.34,150.69L31.91,145.45L32.48,118.25L33.05,130.75L33.62,115.95L34.19,92.3L34.76,143.92L35.33,136.58L35.9,76.76L36.47,160.92L37.03,143.9L37.6,126.06L38.74,146.12L39.31,128.19L40.45,109.53L41.02,159.18L42.16,126.42L42.73,152.52L44.44,118.81L45.01,122L45.58,166.99L46.15,136.97L46.72,139.38L47.29,161.94L47.86,134.68L48.43,142.32L49,150.5L49.57,125.43L50.14,151.36L50.71,163.09L51.28,147.9L51.85,145.75L52.42,153.1L54.13,140.82L54.7,174.3L55.27,137.49L55.84,165.07L56.41,119.44L56.98,156.13L57.55,157.15L58.12,132.57L59.83,168.22L60.4,100.26L61.53,175.6L62.1,124.77L63.24,173.41L63.81,160.72L64.38,170.6L64.95,154.92L65.52,148.06L66.09,125.66L67.23,166.13L67.8,153.52L68.37,168.84L68.94,165.81L69.51,139.61L70.08,158.49L70.65,142.66L71.22,174.56L71.79,160L72.36,158.69L72.93,175.31L73.5,127.48L74.07,173.9L74.64,137.4L75.21,161.18L75.78,128.23L76.35,162.61L76.92,185.71L77.49,166.6L78.06,156.45L78.63,179.44L79.2,171.41L79.77,149.59L80.34,166.62L80.91,154.27L81.48,167.72L82.05,149.74L82.62,166.83L83.19,149.49L84.33,182.17L84.9,159.58L85.47,161.92L86.03,170.3L86.6,128L87.17,170.29L87.74,167.16L88.31,156.87L89.45,176.2L90.02,175.39L90.59,182.9L91.16,178.45L91.73,177.64L92.3,163.46L92.87,150.96L93.44,164.61L94.01,144.22L94.58,153.56L95.15,170.86L95.72,127.95L97.43,185.23L98,135.09L98.57,190.09L99.14,166.36L99.71,152.4L100.28,184.93L100.85,193.46L101.42,178.79L101.99,124.65L102.56,168.83L103.13,163.89L103.7,130.33L104.27,178.63L104.84,131.97L105.41,142.06L105.98,167.6L107.12,139.41L107.69,165.27L108.26,164.89L108.83,111.77L110.53,165.34L111.1,161.57L111.67,135.42L112.24,175.99L112.81,173.33L113.38,160.17L113.95,162.92L114.52,161.87L115.09,174.81L115.66,156L116.23,180.89L116.8,161.25L117.37,178.76L117.94,160.53L118.51,177.62L119.08,173.3L119.65,158.43L120.22,159.34L120.79,183.67L121.93,168.73L122.5,179.8L123.07,170.81L123.64,191.14L124.21,190.33L124.78,186.88L125.35,196.23L125.92,189.56L127.06,172.36L127.63,182.17L128.2,193.75L128.77,186.67L129.34,184.2L129.91,175.2L130.48,158.29L131.05,180.08L131.62,195.38L132.19,170.91L133.33,196.39L133.9,186.92L134.47,192.92L135.03,168.9L135.6,172.65L136.17,182.74L137.31,190.61L137.88,175.53L138.45,193.67L139.02,174.2L139.59,163.4L140.16,176.81L140.73,181.88L141.3,156.66L141.87,191.62L142.44,115.78L143.58,180.67L144.15,151.89L144.72,197.45L145.29,186.54L145.86,173.18L146.43,193.1L147,186.81L147.57,181.99L148.14,168.95L148.71,188.88L149.85,178.88L150.42,187.46L150.99,188.02L151.56,171.8L152.7,197.88L153.27,184.43L154.41,174.88L154.98,186.22L156.69,196.21L157.26,174.47L157.83,198.26L158.4,195.59L158.97,190.89L159.53,189.07L160.1,190.98L160.67,180.24L161.24,192.87L161.81,195.84L162.38,169.59L162.95,195.38L163.52,195.03L164.09,189.28L165.23,183.48L165.8,142.53L166.37,191.73L166.94,181.29L167.51,140.13L168.08,200.36L168.65,179.15L169.79,162.23L170.36,190.17L170.93,153.2L171.5,189.4L172.07,186.78L172.64,199.77L173.78,196.26L174.35,197.07L174.92,189.52L175.49,191.79L176.06,198.27L177.2,191.09L177.77,197.34L178.34,202.95L178.91,198.3L179.48,198.64L180.05,200.18L180.62,197.72L181.19,189.25L181.76,199L182.33,180.35L184.03,200.8L184.6,198.65L185.17,199.77L185.74,153.67L186.31,187.25L186.88,177.06L187.45,203.43L188.02,192.19L188.59,203.29L189.73,183.07L190.3,197.75L190.87,193.78L191.44,199.12L192.58,202.51L193.15,198.53L193.72,203.65L194.29,192.76L194.86,201.48L195.43,198L196,199.47" style="vector-effect: non-scaling-stroke; fill: none; stroke: rgb(31, 119, 180); stroke-opacity: 1; stroke-width: 2px; opacity: 1;"/></g><g class="points"/><g class="text"/></g><g class="trace scatter tracea2a9ac" style="stroke-miterlimit: 2; opacity: 1;"><g class="fills"/><g class="errorbars"/><g class="lines"><path class="js-line" d="M0,205.2L1.71,72.36L2.28,127.44L2.85,98.28L3.42,108L3.99,120.96L4.56,108L5.7,98.28L6.27,120.96L6.84,91.8L7.41,108L7.98,114.48L8.55,111.24L9.69,43.2L10.26,52.92L10.83,52.92L11.4,88.56L11.97,95.04L12.53,69.12L13.1,56.16L13.67,69.12L14.24,88.56L14.81,69.12L15.38,91.8L15.95,78.84L16.52,82.08L17.09,52.92L17.66,43.2L18.23,52.92L18.8,75.6L19.37,69.12L19.94,82.08L21.65,36.72L22.22,52.92L23.36,72.36L23.93,59.4L24.5,37.31L25.07,43.2L25.64,85.32L27.35,27L27.92,52.92L28.49,85.32L29.06,62.64L29.63,30.24L30.2,36.72L30.77,39.96L31.34,52.92L31.91,46.44L32.48,33.48L33.05,43.2L33.62,39.96L34.19,85.32L35.33,33.48L35.9,56.16L36.47,23.76L37.03,65.88L37.6,69.12L38.17,52.92L39.31,33.48L39.88,59.4L40.45,36.72L41.02,39.96L41.59,56.16L42.16,75.6L42.73,36.72L43.3,46.44L43.87,36.72L44.44,39.96L45.01,56.16L45.58,36.72L46.15,69.12L47.29,20.52L47.86,39.96L49,24.05L49.57,62.64L50.14,56.16L50.71,20.52L51.85,36.72L52.42,23.76L53.56,56.16L54.13,52.92L54.7,23.76L55.27,36.72L55.84,23.76L56.41,39.96L56.98,30.24L57.55,36.72L58.12,62.64L58.69,43.2L59.26,23.76L59.83,30.24L60.4,46.44L60.97,20.52L61.53,30.24L62.1,69.12L63.24,20.52L63.81,30.24L64.95,23.76L65.52,30.24L66.66,52.92L67.23,36.72L68.37,23.76L68.94,27L69.51,36.72L70.08,30.24L70.65,52.92L71.22,23.76L71.79,33.48L72.36,30.24L72.93,17.28L73.5,41.73L74.07,33.48L74.64,49.68L75.21,27L75.78,43.2L76.35,17.28L76.92,23.76L77.49,36.72L78.06,33.48L78.63,14.04L79.2,17.28L79.77,30.24L81.48,20.52L82.05,52.92L83.19,23.76L83.76,23.76L84.33,17.28L84.9,43.2L85.47,49.68L86.03,20.52L86.6,39.96L87.17,20.52L88.31,36.72L88.88,27L90.02,20.52L90.59,20.52L91.16,20.52L91.73,14.04L92.87,39.96L93.44,36.72L94.58,20.52L95.15,27L95.72,72.36L96.29,36.72L97.43,17.28L98,28.47L98.57,17.28L99.14,33.48L99.71,62.64L100.28,20.52L100.85,17.28L101.42,20.52L101.99,43.2L102.56,23.76L103.7,62.64L104.27,20.52L104.84,33.48L105.41,30.24L105.98,20.52L107.12,65.88L107.69,33.48L108.26,27L108.83,36.72L109.4,39.96L109.97,20.52L111.67,69.12L112.24,33.48L112.81,17.28L113.38,23.76L113.95,20.52L114.52,23.76L115.09,20.52L115.66,30.24L116.23,17.28L116.8,39.96L117.37,23.76L117.94,30.24L118.51,14.04L119.08,20.52L120.22,33.48L120.79,17.28L123.07,30.24L123.64,14.04L124.21,17.28L124.78,14.04L125.35,17.28L125.92,27L126.49,17.28L127.06,20.52L127.63,33.48L128.2,20.52L128.77,17.28L129.34,27L129.91,17.28L130.48,23.76L131.05,23.76L131.62,20.52L132.19,23.76L132.76,20.52L133.9,14.04L134.47,17.28L135.03,27L135.6,20.52L136.17,14.04L136.74,17.28L137.31,20.52L137.88,33.48L139.02,17.28L139.59,27L140.16,20.52L140.73,27L141.3,46.44L141.87,14.04L142.44,43.2L143.01,23.76L143.58,27L144.15,39.96L145.29,14.04L145.86,20.52L146.43,10.8L147,15.22L148.14,27L148.71,17.28L149.28,17.28L149.85,20.52L150.42,17.28L150.99,20.52L151.56,33.48L152.13,14.04L152.7,14.04L153.27,17.28L153.84,14.04L154.41,20.52L154.98,20.52L155.55,23.76L156.12,14.04L156.69,17.28L157.26,20.52L157.83,14.04L158.97,20.52L159.53,17.28L160.1,14.04L160.67,30.24L161.81,10.8L162.38,17.28L162.95,17.28L163.52,14.04L165.8,23.76L166.37,14.04L166.94,14.04L167.51,52.92L168.08,14.04L168.65,17.28L169.22,20.52L169.79,23.76L170.36,17.28L170.93,43.2L171.5,10.8L172.07,17.28L172.64,10.8L173.78,14.04L174.35,14.04L175.49,17.28L176.06,10.8L177.2,17.28L177.77,17.28L178.91,10.8L179.48,14.04L180.05,14.04L180.62,10.8L182.33,20.52L182.9,14.04L183.47,17.28L184.03,10.8L184.6,10.8L185.17,14.04L185.74,20.52L186.31,17.28L187.45,10.8L188.02,14.04L188.59,10.8L189.16,17.28L189.73,20.52L190.3,17.28L192.01,10.8L192.58,10.8L193.15,14.04L193.72,10.8L194.29,17.28L194.86,10.8L196,15.22" style="vector-effect: non-scaling-stroke; fill: none; stroke: rgb(255, 127, 14); stroke-opacity: 1; stroke-width: 2px; opacity: 1;"/></g><g class="points"/><g class="text"/></g></g></g><g class="overplot"/><path class="xlines-above crisp" d="M0,0" style="fill: none;"/><path class="ylines-above crisp" d="M0,0" style="fill: none;"/><g class="overlines-above"/><g class="xaxislayer-above"><g class="xtick"><text text-anchor="middle" x="0" y="289" transform="translate(60,0)" style="font-family: 'Open Sans', verdana, arial, sans-serif; font-size: 12px; fill: rgb(68, 68, 68); fill-opacity: 1; white-space: pre;">0</text></g><g class="xtick"><text text-anchor="middle" x="0" y="289" transform="translate(116.97999999999999,0)" style="font-family: 'Open Sans', verdana, arial, sans-serif; font-size: 12px; fill: rgb(68, 68, 68); fill-opacity: 1; white-space: pre;">100</text></g><g class="xtick"><text text-anchor="middle" x="0" y="289" transform="translate(173.95,0)" style="font-family: 'Open Sans', verdana, arial, sans-serif; font-size: 12px; fill: rgb(68, 68, 68); fill-opacity: 1; white-space: pre;">200</text></g><g class="xtick"><text text-anchor="middle" x="0" y="289" transform="translate(230.93,0)" style="font-family: 'Open Sans', verdana, arial, sans-serif; font-size: 12px; fill: rgb(68, 68, 68); fill-opacity: 1; white-space: pre;">300</text></g></g><g class="yaxislayer-above"><g class="ytick"><text text-anchor="end" x="59" y="4.199999999999999" transform="translate(0,265.2)" style="font-family: 'Open Sans', verdana, arial, sans-serif; font-size: 12px; fill: rgb(68, 68, 68); fill-opacity: 1; white-space: pre;">0</text></g><g class="ytick"><text text-anchor="end" x="59" y="4.199999999999999" transform="translate(0,226.32)" style="font-family: 'Open Sans', verdana, arial, sans-serif; font-size: 12px; fill: rgb(68, 68, 68); fill-opacity: 1; white-space: pre;">0.2</text></g><g class="ytick"><text text-anchor="end" x="59" y="4.199999999999999" transform="translate(0,187.44)" style="font-family: 'Open Sans', verdana, arial, sans-serif; font-size: 12px; fill: rgb(68, 68, 68); fill-opacity: 1; white-space: pre;">0.4</text></g><g class="ytick"><text text-anchor="end" x="59" y="4.199999999999999" transform="translate(0,148.56)" style="font-family: 'Open Sans', verdana, arial, sans-serif; font-size: 12px; fill: rgb(68, 68, 68); fill-opacity: 1; white-space: pre;">0.6</text></g><g class="ytick"><text text-anchor="end" x="59" y="4.199999999999999" transform="translate(0,109.68)" style="font-family: 'Open Sans', verdana, arial, sans-serif; font-size: 12px; fill: rgb(68, 68, 68); fill-opacity: 1; white-space: pre;">0.8</text></g><g class="ytick"><text text-anchor="end" x="59" y="4.199999999999999" transform="translate(0,70.8)" style="font-family: 'Open Sans', verdana, arial, sans-serif; font-size: 12px; fill: rgb(68, 68, 68); fill-opacity: 1; white-space: pre;">1</text></g></g><g class="overaxes-above"/></g></g><g class="polarlayer"/><g class="ternarylayer"/><g class="geolayer"/><g class="funnelarealayer"/><g class="pielayer"/><g class="treemaplayer"/><g class="sunburstlayer"/><g class="glimages"/><defs id="topdefs-186abf"><g class="clips"/><clipPath id="legend186abf"><rect width="99" height="48" x="0" y="0"/></clipPath></defs><g class="layer-above"><g class="imagelayer"/><g class="shapelayer"/></g><g class="infolayer"><g class="legend" pointer-events="all" transform="translate(259.92, 60)"><rect class="bg" shape-rendering="crispEdges" width="99" height="48" x="0" y="0" style="stroke: rgb(68, 68, 68); stroke-opacity: 1; fill: rgb(255, 255, 255); fill-opacity: 1; stroke-width: 0px;"/><g class="scrollbox" transform="translate(0, 0)" clip-path="url('#legend186abf')"><g class="groups"><g class="traces" transform="translate(0, 14.5)" style="opacity: 1;"><text class="legendtext" text-anchor="start" x="40" y="4.680000000000001" style="font-family: 'Open Sans', verdana, arial, sans-serif; font-size: 12px; fill: rgb(68, 68, 68); fill-opacity: 1; white-space: pre;">train-loss</text><g class="layers" style="opacity: 1;"><g class="legendfill"/><g class="legendlines"><path class="js-line" d="M5,0h30" style="fill: none; stroke: rgb(31, 119, 180); stroke-opacity: 1; stroke-width: 2px;"/></g><g class="legendsymbols"><g class="legendpoints"/></g></g><rect class="legendtoggle" x="0" y="-9.5" width="93.82812881469727" height="19" style="fill: rgb(0, 0, 0); fill-opacity: 0;"/></g><g class="traces" transform="translate(0, 33.5)" style="opacity: 1;"><text class="legendtext" text-anchor="start" x="40" y="4.680000000000001" style="font-family: 'Open Sans', verdana, arial, sans-serif; font-size: 12px; fill: rgb(68, 68, 68); fill-opacity: 1; white-space: pre;">acc</text><g class="layers" style="opacity: 1;"><g class="legendfill"/><g class="legendlines"><path class="js-line" d="M5,0h30" style="fill: none; stroke: rgb(255, 127, 14); stroke-opacity: 1; stroke-width: 2px;"/></g><g class="legendsymbols"><g class="legendpoints"/></g></g><rect class="legendtoggle" x="0" y="-9.5" width="93.82812881469727" height="19" style="fill: rgb(0, 0, 0); fill-opacity: 0;"/></g></g></g><rect class="scrollbar" rx="20" ry="3" width="0" height="0" x="0" y="0" style="fill: rgb(128, 139, 164); fill-opacity: 1;"/></g><g class="g-gtitle"><text class="gtitle" x="185.495" y="30" text-anchor="middle" dy="0em" style="font-family: 'Open Sans', verdana, arial, sans-serif; font-size: 17px; fill: rgb(68, 68, 68); opacity: 1; font-weight: normal; white-space: pre;">train loss</text></g><g class="g-xtitle"/><g class="g-ytitle"/></g></svg>