<svg class="main-svg" xmlns="http://www.w3.org/2000/svg" xmlns:xlink="http://www.w3.org/1999/xlink" width="370.99" height="335.99" style="" viewBox="0 0 370.99 335.99"><rect x="0" y="0" width="370.99" height="335.99" style="fill: rgb(255, 255, 255); fill-opacity: 1;"/><defs id="defs-7bfd48"><g class="clips"><clipPath id="clip7bfd48xyplot" class="plotclip"><rect width="196" height="216"/></clipPath><clipPath class="axesclip" id="clip7bfd48x"><rect x="60" y="0" width="196" height="335.99"/></clipPath><clipPath class="axesclip" id="clip7bfd48y"><rect x="0" y="60" width="370.99" height="216"/></clipPath><clipPath class="axesclip" id="clip7bfd48xy"><rect x="60" y="60" width="196" height="216"/></clipPath></g><g class="gradients"/></defs><g class="bglayer"/><g class="layer-below"><g class="imagelayer"/><g class="shapelayer"/></g><g class="cartesianlayer"><g class="subplot xy"><g class="layer-subplot"><g class="shapelayer"/><g class="imagelayer"/></g><g class="gridlayer"><g class="x"><path class="xgrid crisp" transform="translate(129.01,0)" d="M0,60v216" style="stroke: rgb(238, 238, 238); stroke-opacity: 1; stroke-width: 1px;"/><path class="xgrid crisp" transform="translate(198.03,0)" d="M0,60v216" style="stroke: rgb(238, 238, 238); stroke-opacity: 1; stroke-width: 1px;"/></g><g class="y"><path class="ygrid crisp" transform="translate(0,226.32)" d="M60,0h196" style="stroke: rgb(238, 238, 238); stroke-opacity: 1; stroke-width: 1px;"/><path class="ygrid crisp" transform="translate(0,187.44)" d="M60,0h196" style="stroke: rgb(238, 238, 238); stroke-opacity: 1; stroke-width: 1px;"/><path class="ygrid crisp" transform="translate(0,148.56)" d="M60,0h196" style="stroke: rgb(238, 238, 238); stroke-opacity: 1; stroke-width: 1px;"/><path class="ygrid crisp" transform="translate(0,109.68)" d="M60,0h196" style="stroke: rgb(238, 238, 238); stroke-opacity: 1; stroke-width: 1px;"/><path class="ygrid crisp" transform="translate(0,70.8)" d="M60,0h196" style="stroke: rgb(238, 238, 238); stroke-opacity: 1; stroke-width: 1px;"/></g></g><g class="zerolinelayer"><path class="xzl zl crisp" transform="translate(60,0)" d="M0,60v216" style="stroke: rgb(68, 68, 68); stroke-opacity: 1; stroke-width: 1px;"/><path class="yzl zl crisp" transform="translate(0,265.2)" d="M60,0h196" style="stroke: rgb(68, 68, 68); stroke-opacity: 1; stroke-width: 1px;"/></g><path class="xlines-below"/><path class="ylines-below"/><g class="overlines-below"/><g class="xaxislayer-below"/><g class="yaxislayer-below"/><g class="overaxes-below"/><g class="plot" transform="translate(60, 60)" clip-path="url('#clip7bfd48xyplot')"><g class="scatterlayer mlayer"><g class="trace scatter trace951125" style="stroke-miterlimit: 2; opacity: 1;"><g class="fills"/><g class="errorbars"/><g class="lines"><path class="js-line" d="M0,205.2L0.35,71.09L1.04,77.95L1.38,92.4L1.73,84.96L2.07,93.74L2.42,82.1L2.76,97.94L3.11,92.03L3.8,92.7L4.14,115.42L4.83,88.13L5.18,100.51L5.52,91.49L5.87,126.52L6.56,110.35L6.9,125.62L7.59,100.14L7.94,117.85L8.28,120.43L8.63,138.16L8.97,152.24L9.32,136.35L9.66,140.26L10.7,155.62L11.04,148.61L11.39,126.69L11.73,149.29L12.08,131.11L13.11,173.46L13.46,131.87L14.84,176.4L15.18,127.97L15.87,179.15L16.22,101.45L17.25,178.06L17.6,142.79L18.29,163.82L18.63,149.15L19.32,160.93L19.67,149.42L20.01,133.14L20.36,140.85L20.7,154.28L21.39,181.42L21.74,124.82L22.08,182.92L22.43,148.37L22.77,145.94L23.12,184.56L23.46,172.54L23.81,162.43L24.85,186.39L25.19,146.18L25.88,168.62L26.23,150.92L27.61,188.2L27.95,176.64L28.3,172.58L28.64,185.38L29.68,150.51L30.02,154.22L30.37,189.99L30.71,189.84L31.06,182.38L31.75,132.27L32.09,155.08L32.44,183.03L33.13,182.65L33.47,181.57L33.82,188.31L34.16,155.88L34.85,178.77L35.2,173.76L35.89,158.03L36.23,169.87L36.58,166.16L36.92,153.25L37.27,187.67L37.61,174.48L37.96,163.01L38.65,186.78L38.99,169.6L39.68,153.99L40.03,174.97L40.72,190.99L41.06,160.11L41.75,185.47L42.1,179.5L42.44,179L42.79,188.23L43.13,156.58L43.48,189.81L44.17,185.85L44.51,186.34L44.86,182.68L45.2,162.63L46.24,185.98L46.58,152.7L47.27,173.76L47.62,159.72L48.65,189.36L49,161.75L49.35,137.89L49.69,153.15L50.04,180.28L50.38,179.67L50.73,187.4L51.42,174.12L51.76,184.9L52.8,175.29L53.14,171.21L53.49,197.03L53.83,185.85L54.18,168.75L54.87,176.81L55.21,197.05L55.56,200.01L55.9,198.46L56.25,180.44L56.59,181.63L56.94,193.5L57.28,196.84L57.63,161.43L57.97,199.6L58.32,170.12L58.66,178.54L59.01,196.5L59.35,172.54L59.7,174.46L60.04,187.56L60.39,165.73L60.73,184.15L61.08,186.35L61.42,193.56L61.77,170.48L62.11,168.93L62.46,196.48L62.8,159.18L63.15,175.04L63.49,181.25L64.18,186.34L64.53,165.06L65.56,198.51L65.91,156.05L66.25,195.72L66.6,185.1L66.94,138.09L68.32,197.31L68.67,186.83L69.01,187.14L69.36,190.11L70.05,176.6L70.39,182.69L70.74,181.2L71.08,171.92L71.43,187.74L71.77,159.16L72.46,184.25L72.81,177.9L73.15,193.57L73.5,186.78L73.85,156.39L75.23,188.25L75.57,177.14L75.92,153.76L76.26,182.17L76.95,184.08L77.3,178.48L77.64,179.98L77.99,175.82L78.33,184.32L78.68,172.38L79.37,190.81L79.71,180.18L80.06,183.26L80.4,174.29L80.75,172.05L81.09,185.02L81.44,198.35L81.78,194.64L82.13,189.33L82.82,164.23L83.16,194.88L84.2,166.9L84.54,180.03L85.23,169.82L85.58,175.32L86.27,172.44L86.61,192.57L86.96,187.89L87.3,194.49L87.99,189.92L88.34,196.74L88.68,153.27L89.03,177.66L89.37,191.28L90.06,178.76L90.41,194.62L91.44,188.83L91.79,179.66L92.48,194.41L92.82,184.73L93.17,196.31L93.51,194.39L93.86,166.32L94.2,194.41L94.89,190.63L95.24,188.96L95.58,184.63L95.93,191.26L96.27,195.3L96.62,178.48L97.31,201.94L97.65,150.55L98.69,189.76L99.04,188.23L99.38,181.66L100.07,196.95L100.42,189.47L100.76,165.83L101.11,172.12L101.45,187.18L101.8,191.92L102.14,177.44L102.83,196.14L103.18,174.1L103.52,199.42L103.87,197.86L104.21,168.66L104.56,202.37L104.9,188.5L105.25,184.46L105.59,169.77L105.94,171.12L106.28,190.25L106.97,160.42L107.32,195.38L108.35,174.05L108.7,174.77L109.04,189.23L109.39,168.96L110.08,187.03L110.42,197.79L111.46,167.38L111.8,185.46L112.15,180.27L112.49,188.48L113.18,201.77L113.53,199.42L113.87,190.17L114.22,156.45L114.56,202.75L114.91,185.58L115.25,201.82L115.6,198.43L115.94,146.47L116.29,201.44L116.63,195.5L117.67,174.15L118.01,175.21L118.36,194.69L118.7,183.18L119.05,175.18L119.74,196.55L120.08,176.23L120.43,153.74L120.77,171.65L121.12,179.23L121.46,188.91L121.81,146.58L122.85,192.68L123.19,190.1L123.54,178.06L123.88,193.71L124.23,174.39L124.57,185.88L124.92,191.81L125.26,192.15L125.61,185.53L126.3,195.93L126.64,190.09L127.33,197.95L127.68,171.37L128.02,187.76L128.37,179.67L128.71,152.94L129.4,197.84L129.75,190.31L130.09,185.79L130.44,176.1L130.78,194.05L131.13,178.3L131.47,191.66L131.82,199.16L132.16,188.13L132.51,193.5L132.85,197.8L133.2,183.96L133.54,190.68L133.89,193.76L134.58,188.6L134.92,175.46L135.96,197.18L136.3,176.58L136.65,191.22L137.34,190.66L137.68,191.26L138.03,204.54L138.37,178.44L138.72,189.5L139.41,188.8L139.75,196.39L140.79,187.13L141.13,182.83L141.82,202.81L142.17,192.05L142.51,201.5L142.86,163.52L143.2,199L143.89,198.46L144.24,191.98L144.58,183.76L144.93,156.88L145.96,200.62L146.31,193.77L146.65,192.23L147,175.9L147.35,168.94L147.69,194.97L148.04,153.26L148.38,176.99L148.73,191.56L149.07,162.88L149.42,181.68L149.76,189.08L150.11,195L150.45,188.97L150.8,176.94L151.49,192.09L151.83,182.55L152.52,196.12L152.87,190.07L153.56,162.3L153.9,167.95L154.25,188.75L154.59,183.83L154.94,195.32L155.28,193.7L155.63,177.28L155.97,186.78L156.32,152.12L157.01,198.06L157.35,171.12L158.39,197.61L158.73,191.64L159.08,186.21L159.42,192.4L159.77,168.22L160.11,160.17L160.46,171.12L161.49,198.72L161.84,194.91L162.18,197.57L162.53,189.67L162.87,191.94L163.22,185.28L163.56,198.51L163.91,180.58L164.25,189.65L164.6,186.97L164.94,184.12L166.32,202.73L166.67,179.76L167.01,163.21L167.36,200.89L168.39,169.68L168.74,197.27L169.08,165.24L169.43,190.74L169.77,190.69L170.12,196.23L170.46,183.26L170.81,168.68L171.15,202.61L171.5,182.42L171.85,196.13L172.19,198.6L173.23,172.19L173.57,194.31L173.92,194.37L174.26,199.19L174.61,199.23L174.95,203.04L175.64,203.07L175.99,175.11L176.33,201.27L177.37,177.9L177.71,201.31L178.06,166.56L178.4,194.2L178.75,201.74L179.09,183.61L179.44,185.12L179.78,194.4L180.82,180.33L181.16,194.41L181.85,201.2L182.2,201.16L182.54,194.23L182.89,198.24L183.23,180.81L183.58,176.9L183.92,201.48L184.27,201.45L184.61,164.04L185.65,198.43L185.99,196.45L186.34,182.73L186.68,193.82L187.03,188.79L187.37,189.6L187.72,181.09L188.06,183.41L188.41,193.44L188.75,186.57L189.1,191.44L189.44,198.32L189.79,179.47L190.13,197.59L190.48,187.34L190.82,184.62L191.17,192.76L191.51,190.53L191.86,174.82L192.2,202.4L192.55,196.49L192.89,187.98L193.24,203.92L193.58,175.44L194.62,198.9L194.96,190.09L195.65,198.41L196,188.42" style="vector-effect: non-scaling-stroke; fill: none; stroke: rgb(31, 119, 180); stroke-opacity: 1; stroke-width: 2px; opacity: 1;"/></g><g class="points"/><g class="text"/></g><g class="trace scatter trace5479e1" style="stroke-miterlimit: 2; opacity: 1;"><g class="fills"/><g class="errorbars"/><g class="lines"><path class="js-line" d="M0,205.2L1.04,143.64L1.38,166.32L1.73,140.4L2.07,59.4L3.11,88.56L3.45,111.24L3.8,124.2L4.14,101.52L5.18,46.44L5.52,39.96L5.87,43.2L6.21,72.36L6.56,52.92L6.9,69.12L7.25,65.88L7.59,62.64L7.94,49.68L8.28,52.92L8.63,36.72L9.32,23.76L9.66,39.96L10.35,17.28L10.7,20.52L11.04,23.76L11.39,75.6L11.73,39.96L12.08,33.48L13.11,23.76L13.46,39.96L13.8,52.92L14.15,49.68L14.49,46.44L14.84,14.04L15.18,39.96L15.53,20.52L15.87,20.52L16.22,65.88L16.56,78.84L16.91,27L17.25,17.28L17.6,30.24L17.94,30.24L18.29,27L18.98,23.76L19.32,36.72L20.01,88.56L20.36,62.64L20.7,36.72L21.05,33.48L21.39,14.04L21.74,20.52L22.08,10.8L22.77,39.96L23.12,20.52L23.81,33.48L24.15,23.76L25.19,36.72L25.54,20.52L25.88,20.52L26.23,27L26.92,23.76L27.26,27L27.61,10.8L27.95,20.52L28.3,23.76L28.64,20.52L28.99,23.76L29.33,23.76L29.68,33.48L30.02,27L30.37,23.76L30.71,23.76L31.06,14.04L31.75,39.96L32.09,30.24L32.44,17.28L33.13,17.28L33.47,20.52L33.82,17.28L34.16,30.24L35.2,20.52L35.54,30.24L35.89,43.2L36.23,23.76L36.58,20.52L36.92,33.48L37.27,14.04L37.61,23.76L37.96,23.76L38.3,23.76L38.65,14.04L39.68,39.96L40.03,20.52L40.72,14.04L41.06,23.76L42.1,20.52L42.44,23.76L42.79,20.52L43.13,39.96L43.48,14.04L44.17,17.28L44.51,17.28L44.86,17.28L45.2,27L46.24,20.52L46.58,36.72L47.27,27L47.62,36.72L48.65,17.28L49,17.28L49.69,39.96L50.04,14.04L51.07,23.76L51.42,23.76L51.76,23.76L52.11,20.52L53.14,27L53.49,10.8L54.52,30.24L54.87,17.28L55.21,10.8L55.56,14.04L55.9,14.04L56.25,20.52L56.59,17.28L56.94,17.28L57.28,14.04L57.63,27L57.97,10.8L58.32,17.28L58.66,23.76L59.01,14.04L59.35,20.52L59.7,20.52L60.04,17.28L60.39,27L61.42,17.28L61.77,20.52L62.11,23.76L62.46,14.04L62.8,27L63.15,23.76L63.49,20.52L64.53,23.76L64.87,10.8L65.91,30.24L66.25,17.28L66.6,17.28L66.94,33.48L68.32,10.8L68.67,17.28L69.01,17.28L69.36,14.04L69.7,30.24L70.05,27L70.39,20.52L71.08,14.04L71.43,17.28L71.77,30.24L72.12,20.52L72.46,14.04L73.85,27L74.19,27L74.88,14.04L75.23,17.28L75.57,20.52L75.92,46.44L76.26,27L76.61,20.52L76.95,17.28L77.3,20.52L77.64,23.76L77.99,23.76L78.33,20.52L78.68,33.48L79.02,20.52L79.37,17.28L79.71,27L80.06,23.76L80.4,23.76L80.75,23.76L81.09,17.28L81.44,17.28L81.78,10.8L82.47,27L82.82,75.6L83.16,14.04L83.85,17.28L84.2,17.28L84.54,14.04L84.89,27L85.23,30.24L85.58,23.76L85.92,27L86.27,23.76L86.61,14.04L87.99,14.04L88.34,17.28L88.68,33.48L89.03,23.76L89.37,20.52L90.06,23.76L90.41,10.8L91.79,23.76L92.13,14.04L92.48,14.04L92.82,23.76L93.51,17.28L93.86,23.76L94.55,14.04L94.89,20.52L96.27,10.8L96.62,14.04L96.96,17.28L97.31,14.04L97.65,36.72L98.69,14.04L99.04,17.28L99.38,23.76L99.73,10.8L100.07,14.04L100.42,23.76L100.76,17.28L101.11,30.24L101.8,14.04L102.14,17.28L102.49,23.76L102.83,14.04L103.18,30.24L103.52,10.8L103.87,14.04L104.21,23.76L104.56,10.8L104.9,14.04L105.25,20.52L105.59,27L105.94,23.76L106.28,20.52L106.63,20.52L106.97,23.76L108.01,17.28L108.35,23.76L108.7,20.52L109.04,27L109.39,27L109.73,20.52L110.42,10.8L110.77,17.28L111.46,30.24L111.8,27L112.15,23.76L113.53,10.8L113.87,17.28L114.22,27L114.56,14.04L114.91,20.52L115.25,14.04L115.6,14.04L115.94,20.52L116.29,10.8L116.98,20.52L117.32,14.04L117.67,20.52L118.01,17.28L118.36,14.04L118.7,27L119.05,20.52L119.39,14.04L119.74,10.8L120.08,23.76L120.43,23.76L120.77,20.52L121.12,23.76L121.46,17.28L121.81,36.72L122.15,23.76L122.5,20.52L123.19,14.04L123.54,23.76L124.23,14.04L124.57,17.28L124.92,20.52L125.26,14.04L125.95,23.76L126.3,10.8L126.64,17.28L126.99,14.04L127.33,14.04L128.71,30.24L129.06,20.52L129.75,10.8L130.09,17.28L130.44,23.76L130.78,14.04L131.13,17.28L131.47,14.04L131.82,10.8L132.85,17.28L133.2,17.28L133.89,14.04L134.23,17.28L134.58,17.28L134.92,23.76L135.61,10.8L135.96,17.28L136.99,17.28L137.34,20.52L138.03,10.8L138.37,23.76L139.41,14.04L139.75,14.04L141.48,23.76L141.82,10.8L142.17,14.04L142.51,10.8L142.86,23.76L143.89,10.8L144.24,14.04L144.58,17.28L144.93,30.24L145.96,14.04L146.31,14.04L147,14.04L147.35,20.52L147.69,14.04L148.04,33.48L148.38,36.72L148.73,20.52L149.07,30.24L149.42,20.52L149.76,10.8L150.45,10.8L150.8,17.28L151.49,14.04L151.83,23.76L152.18,10.8L152.52,17.28L152.87,20.52L153.21,20.52L153.56,27L153.9,27L154.25,23.76L155.63,14.04L155.97,17.28L156.32,27L156.66,14.04L157.01,10.8L157.35,20.52L157.7,27L158.04,17.28L158.39,10.8L158.73,20.52L159.08,14.04L159.42,17.28L159.77,17.28L160.8,27L161.15,10.8L161.49,10.8L161.84,14.04L162.18,10.8L162.53,14.04L162.87,17.28L163.22,20.52L163.56,14.04L163.91,27L164.25,14.04L164.6,20.52L165.63,10.8L165.98,14.04L166.32,10.8L166.67,17.28L167.01,27L167.36,14.04L167.7,23.76L168.05,10.8L169.08,27L169.43,20.52L170.12,14.04L170.46,27L170.81,27L171.15,10.8L171.5,20.52L171.85,10.8L172.19,10.8L173.92,20.52L174.26,17.28L174.95,10.8L175.3,17.28L175.64,10.8L175.99,20.52L176.33,10.8L176.68,23.76L177.71,14.04L178.06,23.76L178.75,14.04L179.09,17.28L179.78,17.28L180.13,14.04L180.82,23.76L181.16,17.28L182.2,10.8L182.54,14.04L182.89,14.04L183.23,20.52L183.58,20.52L183.92,10.8L184.27,14.04L184.61,33.48L185.65,14.04L185.99,10.8L186.68,17.28L187.03,14.04L187.37,14.04L187.72,17.28L188.06,30.24L188.41,20.52L188.75,20.52L189.1,20.52L189.44,14.04L189.79,23.76L190.13,14.04L190.48,17.28L190.82,17.28L191.17,14.04L191.51,14.04L191.86,23.76L192.2,10.8L192.55,14.04L192.89,20.52L193.24,10.8L193.58,17.28L193.93,14.04L194.27,17.28L194.62,10.8L194.96,17.28L195.31,14.04L195.65,14.04L196,17.28" style="vector-effect: non-scaling-stroke; fill: none; stroke: rgb(255, 127, 14); stroke-opacity: 1; stroke-width: 2px; opacity: 1;"/></g><g class="points"/><g class="text"/></g></g></g><g class="overplot"/><path class="xlines-above crisp" d="M0,0" style="fill: none;"/><path class="ylines-above crisp" d="M0,0" style="fill: none;"/><g class="overlines-above"/><g class="xaxislayer-above"><g class="xtick"><text text-anchor="middle" x="0" y="289" transform="translate(60,0)" style="font-family: 'Open Sans', verdana, arial, sans-serif; font-size: 12px; fill: rgb(68, 68, 68); fill-opacity: 1; white-space: pre;">0</text></g><g class="xtick"><text text-anchor="middle" x="0" y="289" transform="translate(129.01,0)" style="font-family: 'Open Sans', verdana, arial, sans-serif; font-size: 12px; fill: rgb(68, 68, 68); fill-opacity: 1; white-space: pre;">200</text></g><g class="xtick"><text text-anchor="middle" x="0" y="289" transform="translate(198.03,0)" style="font-family: 'Open Sans', verdana, arial, sans-serif; font-size: 12px; fill: rgb(68, 68, 68); fill-opacity: 1; white-space: pre;">400</text></g></g><g class="yaxislayer-above"><g class="ytick"><text text-anchor="end" x="59" y="4.199999999999999" transform="translate(0,265.2)" style="font-family: 'Open Sans', verdana, arial, sans-serif; font-size: 12px; fill: rgb(68, 68, 68); fill-opacity: 1; white-space: pre;">0</text></g><g class="ytick"><text text-anchor="end" x="59" y="4.199999999999999" transform="translate(0,226.32)" style="font-family: 'Open Sans', verdana, arial, sans-serif; font-size: 12px; fill: rgb(68, 68, 68); fill-opacity: 1; white-space: pre;">0.2</text></g><g class="ytick"><text text-anchor="end" x="59" y="4.199999999999999" transform="translate(0,187.44)" style="font-family: 'Open Sans', verdana, arial, sans-serif; font-size: 12px; fill: rgb(68, 68, 68); fill-opacity: 1; white-space: pre;">0.4</text></g><g class="ytick"><text text-anchor="end" x="59" y="4.199999999999999" transform="translate(0,148.56)" style="font-family: 'Open Sans', verdana, arial, sans-serif; font-size: 12px; fill: rgb(68, 68, 68); fill-opacity: 1; white-space: pre;">0.6</text></g><g class="ytick"><text text-anchor="end" x="59" y="4.199999999999999" transform="translate(0,109.68)" style="font-family: 'Open Sans', verdana, arial, sans-serif; font-size: 12px; fill: rgb(68, 68, 68); fill-opacity: 1; white-space: pre;">0.8</text></g><g class="ytick"><text text-anchor="end" x="59" y="4.199999999999999" transform="translate(0,70.8)" style="font-family: 'Open Sans', verdana, arial, sans-serif; font-size: 12px; fill: rgb(68, 68, 68); fill-opacity: 1; white-space: pre;">1</text></g></g><g class="overaxes-above"/></g></g><g class="polarlayer"/><g class="ternarylayer"/><g class="geolayer"/><g class="funnelarealayer"/><g class="pielayer"/><g class="treemaplayer"/><g class="sunburstlayer"/><g class="glimages"/><defs id="topdefs-7bfd48"><g class="clips"/><clipPath id="legend7bfd48"><rect width="99" height="48" x="0" y="0"/></clipPath></defs><g class="layer-above"><g class="imagelayer"/><g class="shapelayer"/></g><g class="infolayer"><g class="legend" pointer-events="all" transform="translate(259.92, 60)"><rect class="bg" shape-rendering="crispEdges" width="99" height="48" x="0" y="0" style="stroke: rgb(68, 68, 68); stroke-opacity: 1; fill: rgb(255, 255, 255); fill-opacity: 1; stroke-width: 0px;"/><g class="scrollbox" transform="translate(0, 0)" clip-path="url('#legend7bfd48')"><g class="groups"><g class="traces" transform="translate(0, 14.5)" style="opacity: 1;"><text class="legendtext" text-anchor="start" x="40" y="4.680000000000001" style="font-family: 'Open Sans', verdana, arial, sans-serif; font-size: 12px; fill: rgb(68, 68, 68); fill-opacity: 1; white-space: pre;">train-loss</text><g class="layers" style="opacity: 1;"><g class="legendfill"/><g class="legendlines"><path class="js-line" d="M5,0h30" style="fill: none; stroke: rgb(31, 119, 180); stroke-opacity: 1; stroke-width: 2px;"/></g><g class="legendsymbols"><g class="legendpoints"/></g></g><rect class="legendtoggle" x="0" y="-9.5" width="93.82812881469727" height="19" style="fill: rgb(0, 0, 0); fill-opacity: 0;"/></g><g class="traces" transform="translate(0, 33.5)" style="opacity: 1;"><text class="legendtext" text-anchor="start" x="40" y="4.680000000000001" style="font-family: 'Open Sans', verdana, arial, sans-serif; font-size: 12px; fill: rgb(68, 68, 68); fill-opacity: 1; white-space: pre;">acc</text><g class="layers" style="opacity: 1;"><g class="legendfill"/><g class="legendlines"><path class="js-line" d="M5,0h30" style="fill: none; stroke: rgb(255, 127, 14); stroke-opacity: 1; stroke-width: 2px;"/></g><g class="legendsymbols"><g class="legendpoints"/></g></g><rect class="legendtoggle" x="0" y="-9.5" width="93.82812881469727" height="19" style="fill: rgb(0, 0, 0); fill-opacity: 0;"/></g></g></g><rect class="scrollbar" rx="20" ry="3" width="0" height="0" x="0" y="0" style="fill: rgb(128, 139, 164); fill-opacity: 1;"/></g><g class="g-gtitle"><text class="gtitle" x="185.495" y="30" text-anchor="middle" dy="0em" style="font-family: 'Open Sans', verdana, arial, sans-serif; font-size: 17px; fill: rgb(68, 68, 68); opacity: 1; font-weight: normal; white-space: pre;">train loss</text></g><g class="g-xtitle"/><g class="g-ytitle"/></g></svg>