<svg class="main-svg" xmlns="http://www.w3.org/2000/svg" xmlns:xlink="http://www.w3.org/1999/xlink" width="370.99" height="335.99" style="" viewBox="0 0 370.99 335.99"><rect x="0" y="0" width="370.99" height="335.99" style="fill: rgb(255, 255, 255); fill-opacity: 1;"/><defs id="defs-06e58e"><g class="clips"><clipPath id="clip06e58exyplot" class="plotclip"><rect width="196" height="216"/></clipPath><clipPath class="axesclip" id="clip06e58ex"><rect x="60" y="0" width="196" height="335.99"/></clipPath><clipPath class="axesclip" id="clip06e58ey"><rect x="0" y="60" width="370.99" height="216"/></clipPath><clipPath class="axesclip" id="clip06e58exy"><rect x="60" y="60" width="196" height="216"/></clipPath></g><g class="gradients"/></defs><g class="bglayer"/><g class="layer-below"><g class="imagelayer"/><g class="shapelayer"/></g><g class="cartesianlayer"><g class="subplot xy"><g class="layer-subplot"><g class="shapelayer"/><g class="imagelayer"/></g><g class="gridlayer"><g class="x"><path class="xgrid crisp" transform="translate(115.45,0)" d="M0,60v216" style="stroke: rgb(238, 238, 238); stroke-opacity: 1; stroke-width: 1px;"/><path class="xgrid crisp" transform="translate(170.89,0)" d="M0,60v216" style="stroke: rgb(238, 238, 238); stroke-opacity: 1; stroke-width: 1px;"/><path class="xgrid crisp" transform="translate(226.34,0)" d="M0,60v216" style="stroke: rgb(238, 238, 238); stroke-opacity: 1; stroke-width: 1px;"/></g><g class="y"><path class="ygrid crisp" transform="translate(0,226.32)" d="M60,0h196" style="stroke: rgb(238, 238, 238); stroke-opacity: 1; stroke-width: 1px;"/><path class="ygrid crisp" transform="translate(0,187.44)" d="M60,0h196" style="stroke: rgb(238, 238, 238); stroke-opacity: 1; stroke-width: 1px;"/><path class="ygrid crisp" transform="translate(0,148.56)" d="M60,0h196" style="stroke: rgb(238, 238, 238); stroke-opacity: 1; stroke-width: 1px;"/><path class="ygrid crisp" transform="translate(0,109.68)" d="M60,0h196" style="stroke: rgb(238, 238, 238); stroke-opacity: 1; stroke-width: 1px;"/><path class="ygrid crisp" transform="translate(0,70.8)" d="M60,0h196" style="stroke: rgb(238, 238, 238); stroke-opacity: 1; stroke-width: 1px;"/></g></g><g class="zerolinelayer"><path class="xzl zl crisp" transform="translate(60,0)" d="M0,60v216" style="stroke: rgb(68, 68, 68); stroke-opacity: 1; stroke-width: 1px;"/><path class="yzl zl crisp" transform="translate(0,265.2)" d="M60,0h196" style="stroke: rgb(68, 68, 68); stroke-opacity: 1; stroke-width: 1px;"/></g><path class="xlines-below"/><path class="ylines-below"/><g class="overlines-below"/><g class="xaxislayer-below"/><g class="yaxislayer-below"/><g class="overaxes-below"/><g class="plot" transform="translate(60, 60)" clip-path="url('#clip06e58exyplot')"><g class="scatterlayer mlayer"><g class="trace scatter trace7f39d8" style="stroke-miterlimit: 2; opacity: 1;"><g class="fills"/><g class="errorbars"/><g class="lines"><path class="js-line" d="M0,205.2L0.28,70.36L0.83,73.01L1.11,73.54L1.39,72.97L1.66,84.35L1.94,91.84L2.22,82.36L2.5,74.96L3.6,101.04L3.88,80.14L4.16,115.88L4.71,107.05L4.99,105.68L5.27,105.05L5.54,108.27L5.82,121.66L6.1,121.35L6.38,108.86L6.65,110.28L6.93,125.91L8.04,154.85L8.32,151.94L8.59,145.22L8.87,102L9.7,165.27L9.98,170.77L10.26,175.29L10.53,170.97L10.81,161.45L11.64,185.93L11.92,182.95L12.2,176.2L12.48,175.6L12.75,176.11L13.03,159.1L13.86,195.98L14.42,193.8L14.69,189.27L15.25,188.46L15.52,193.67L15.8,182.82L16.08,180.7L16.36,198.36L16.91,189.24L17.47,189.61L17.74,191.82L18.02,183.31L18.3,199.12L18.57,197.79L18.85,179.37L19.68,204.43L19.96,197.98L20.51,175.77L20.79,197.25L22.18,174.36L22.46,194.63L22.73,190.18L23.01,197.62L23.29,193.14L23.56,197.12L24.4,164.22L24.67,175.42L24.95,190.79L25.5,202.1L25.78,170.95L26.61,195.43L26.89,183.37L27.45,181.9L27.72,188.31L28,202.59L28.83,195.48L29.11,180.21L29.39,176.25L29.66,194.63L29.94,192.38L30.22,192.75L30.5,200.21L30.77,199.75L31.05,183.78L31.6,183.22L31.88,200.81L32.16,204.27L32.44,188.98L32.71,200.76L32.99,202.5L33.27,196.35L33.54,202.63L33.82,175.22L34.65,202.6L34.93,198.37L36.04,127.51L36.32,198.63L36.59,147.41L36.87,179.9L37.15,201.57L37.43,153.7L37.98,176.96L38.26,191.92L38.53,190.6L38.81,192.61L39.09,196.35L39.64,181.9L39.92,191.3L40.48,198.58L40.75,177.27L41.31,200.94L41.58,185.53L41.86,189.53L42.14,189.46L42.42,195.96L42.69,185.51L42.97,198.17L43.25,193.05L44.08,202.28L44.36,197.45L44.63,202.62L45.19,201.81L45.47,200.59L46.02,204.14L46.3,164.5L47.41,203.13L47.68,203.88L47.96,204.27L48.24,188.62L48.51,203.43L49.07,201.3L49.35,178.32L49.9,193.8L50.18,119.76L50.73,198.53L51.01,150.58L51.29,203.47L51.56,200.66L51.84,176.18L52.12,169.57L52.4,188.27L52.67,198.5L52.95,195.83L53.23,173.22L54.06,194.56L54.34,194.72L54.61,159.6L55.17,169.03L55.45,198.7L56.28,195.49L56.55,196.08L56.83,180.55L57.11,170.99L57.39,196.99L57.66,198.2L57.94,180.3L58.77,203.44L59.05,198.65L59.33,194.25L59.6,166.53L60.44,199.92L60.71,129.52L60.99,202.97L61.54,182.16L61.82,194.26L62.1,165.82L62.38,197.73L62.65,198.85L63.21,185.47L63.49,195.25L63.76,189.53L64.32,180.22L64.59,180.34L64.87,194.28L65.15,200.08L65.43,180.76L65.98,189.23L66.26,197.37L66.53,204.28L66.81,147.22L67.64,203.88L67.92,200.28L68.2,197.55L68.48,193.54L68.75,199.41L69.03,198.72L69.31,203.36L69.58,187.29L70.97,202.98L71.25,203.91L71.52,203.33L71.8,200.58L72.08,202.61L72.36,201.8L72.63,197.55L73.47,203.7L73.74,201.38L74.02,192.51L74.3,202.14L74.57,204.28L74.85,204.87L75.13,201.51L75.41,188.95L75.68,202L75.96,190.87L76.24,199.26L76.51,196.66L76.79,204.62L77.07,204.41L77.35,192.06L77.62,204.32L77.9,188.47L78.18,203.8L78.46,195.7L79.01,204.13L79.29,200.04L79.56,198.05L80.12,203.22L80.4,197.65L80.67,198.19L80.95,203.19L81.23,204.06L81.5,203.32L81.78,184.37L82.06,183.2L82.34,193.34L82.61,187.23L82.89,194.11L83.17,198.04L83.72,200.41L84.28,163.25L84.55,204.35L84.83,160.64L85.39,189.81L85.66,204.02L85.94,197.49L86.22,173.29L86.5,173.34L86.77,175.16L87.33,192.92L87.6,160.81L87.88,115.09L88.16,201.56L88.44,201L88.71,152.88L88.99,151.41L89.27,200.13L89.82,191.02L90.1,192.44L90.38,191.82L90.65,171.69L90.93,197.18L91.21,197.85L91.76,200.71L92.04,185.69L92.32,185.41L92.59,201.18L93.7,185.48L93.98,199.01L94.53,201.59L94.81,195.22L95.64,203.18L95.92,202.43L96.2,200.94L96.48,203.33L96.75,187.78L97.58,203.33L97.86,182.12L98.14,202.06L98.69,201.63L98.97,193.76L99.52,204.47L99.8,203.07L100.08,201.67L100.36,204.62L100.63,203.44L100.91,199.54L101.19,180.34L101.47,203.52L101.74,180.65L102.02,184.02L102.3,204.85L102.85,202.22L103.13,203.39L103.68,199.59L103.96,204.12L104.79,201.2L105.07,204.31L105.62,204.38L105.9,200.48L106.18,204.7L106.73,203.91L107.01,202.05L107.29,191.69L107.56,203.15L107.84,204.88L108.12,205.01L108.4,200.62L108.95,197.46L109.23,201.22L109.5,202.65L109.78,186.64L110.06,188.31L110.34,203.52L110.89,201.66L111.17,204.72L111.72,151.45L112,204.99L112.28,200.66L112.55,170.84L112.83,158.83L113.11,200.52L113.94,166.73L114.22,192.07L114.5,197.79L114.77,195.05L115.05,177.25L115.33,200.67L115.88,200.42L116.16,182.13L116.71,203.12L116.99,198.49L117.27,201.2L117.54,198.47L117.82,186.94L118.1,203.99L118.65,200.67L118.93,202.99L119.21,202.71L119.49,201.32L120.04,187.02L120.32,203.6L120.59,189.55L120.87,204.6L121.15,204.21L121.43,188.29L121.7,195.08L121.98,203.91L122.53,193.92L122.81,194.17L123.09,200.85L123.92,204.5L124.2,192.17L124.75,204.28L125.03,204.26L125.31,204.36L126.14,200.5L126.42,204.01L126.97,200.73L127.25,204.3L127.52,199.45L127.8,204.25L128.08,203.78L128.36,196.09L128.63,204.11L128.91,204.23L129.19,196.8L129.47,204.57L129.74,202.75L130.57,205.04L130.85,200.32L131.41,205.1L131.68,196.21L131.96,204.04L132.24,194.29L132.51,171.38L132.79,205L133.35,200.38L133.62,179.48L133.9,204.19L134.46,197.94L134.73,204.46L135.01,194.63L135.29,204.25L135.56,203.38L135.84,175.54L136.12,187.41L136.4,197.83L136.95,204.65L137.5,204.52L137.78,199.08L138.34,204.53L138.61,190.53L138.89,203.41L139.45,200.55L139.72,192.09L140,204.39L140.55,204.2L140.83,202.26L141.66,204.98L141.94,197.64L142.77,204.82L143.05,204.28L143.88,204.91L144.16,199.28L144.44,204.4L144.71,200.22L144.99,198.77L145.27,205.03L145.54,192.41L146.38,204.45L146.65,201.91L146.93,204.78L147.21,186.62L147.49,204.86L148.04,204.12L148.32,204.64L148.59,190.94L148.87,203.28L149.15,204.42L149.43,205.06L149.7,201.94L150.53,203.81L150.81,196.95L151.09,178.49L151.37,205L151.64,205.05L152.75,195.27L153.03,204.45L153.31,204L153.58,204.27L153.86,204.81L154.14,201.07L154.42,204.93L154.69,205.07L154.97,204.76L155.25,197.84L156.08,204.93L156.36,203.56L156.91,183.3L157.19,204.85L157.47,204.72L157.74,198.93L158.02,204.64L158.57,204.27L158.85,199.34L159.41,204.96L159.68,204.73L159.96,203.15L160.24,204.92L160.51,198.99L161.35,205.02L161.62,204.53L161.9,204.33L162.18,201.77L162.46,201.44L162.73,205.04L163.01,204.62L163.29,193.01L163.84,204.41L164.12,198.04L165.23,205.02L165.5,204.97L165.78,196.7L166.06,196.33L166.34,203.12L166.61,190.21L166.89,203.03L167.17,200.76L167.45,204.96L167.72,202.79L168,175.2L168.83,204.6L169.11,203.97L169.39,204.57L169.66,205.01L169.94,204.6L170.22,203.49L171.05,204.98L171.33,203.36L171.6,202.16L171.88,202.55L172.16,204.55L172.99,205L173.27,204.41L173.54,200.9L173.82,201.21L174.1,204.6L174.38,203.26L174.65,204.88L174.93,204.72L175.49,204.96L175.76,200.48L176.04,203.43L176.32,202.92L176.59,198.58L177.15,205.06L177.43,189.86L177.7,179.18L177.98,203.02L178.26,161.38L178.53,203.96L178.81,204.98L179.09,199.63L179.37,158.35L179.64,164.34L179.92,204.71L180.2,202.96L180.48,184.13L180.75,181.3L181.03,194.27L181.31,192.21L181.58,203.98L181.86,203.17L182.14,191.07L182.97,203.78L183.25,186.61L183.52,181.26L183.8,202.82L184.08,189.63L184.63,196.88L184.91,203.64L185.19,204.01L185.47,201.9L185.74,202.7L186.02,195.45L186.57,204.65L186.85,204.43L187.13,194.78L187.68,204.25L188.24,203.71L188.51,204.53L189.07,203.26L189.35,203.57L189.62,204.32L189.9,204.46L190.18,203.85L190.46,203.87L190.73,192.62L191.01,198.25L191.29,204.91L191.56,203.23L191.84,204.88L192.12,204.57L192.4,201.84L192.95,202.38L193.23,204.93L194.34,204.73L194.61,203.42L194.89,200.93L195.17,201.79L195.45,204.31L195.72,170.54L196,204.24" style="vector-effect: non-scaling-stroke; fill: none; stroke: rgb(31, 119, 180); stroke-opacity: 1; stroke-width: 2px; opacity: 1;"/></g><g class="points"/><g class="text"/></g><g class="trace scatter traceb3cb62" style="stroke-miterlimit: 2; opacity: 1;"><g class="fills"/><g class="errorbars"/><g class="lines"><path class="js-line" d="M0,205.2L0.28,101.52L0.83,130.68L1.11,104.76L1.39,101.52L1.66,120.96L2.22,20.52L2.5,30.24L2.77,88.56L3.33,124.2L3.6,69.12L3.88,62.64L4.16,27L4.99,72.36L5.27,101.52L5.82,43.2L6.38,49.68L6.65,43.2L6.93,49.68L7.49,46.44L7.76,46.44L8.04,20.52L8.59,27L8.87,43.2L9.15,39.96L9.43,72.36L9.98,14.04L10.26,17.28L10.53,23.76L10.81,27L11.09,39.96L11.64,17.28L11.92,20.52L12.2,20.52L12.48,33.48L12.75,17.28L13.03,23.76L13.31,43.2L13.58,20.52L13.86,10.8L14.69,17.28L14.97,17.28L15.25,20.52L15.52,14.04L15.8,20.52L16.08,17.28L16.36,14.04L16.91,27L17.19,14.04L18.02,17.28L18.3,17.28L18.57,10.8L18.85,27L19.68,10.8L19.96,14.04L20.51,23.76L20.79,10.8L22.18,27L22.46,14.04L23.56,14.04L23.84,23.76L24.12,14.04L24.67,20.52L24.95,14.04L25.23,17.28L25.5,10.8L26.06,17.28L26.34,14.04L26.61,14.04L27.17,20.52L27.45,17.28L27.72,14.04L28,10.8L28.28,14.04L28.55,14.04L28.83,14.04L29.11,23.76L30.22,14.04L30.5,10.8L31.05,23.76L31.33,10.8L31.6,20.52L31.88,10.8L32.16,10.8L32.44,23.76L32.71,10.8L32.99,10.8L33.82,17.28L34.1,10.8L34.38,23.76L34.65,10.8L34.93,10.8L35.21,36.72L35.49,14.04L35.76,17.28L36.32,14.04L36.59,49.68L36.87,17.28L37.15,10.8L37.43,27L37.98,17.28L38.26,20.52L38.53,23.76L39.37,14.04L39.64,17.28L40.48,10.8L40.75,33.48L41.31,10.8L41.58,14.04L41.86,17.28L42.14,14.04L42.42,20.52L43.52,10.8L43.8,14.04L44.08,14.04L44.36,10.8L45.19,10.8L45.47,14.04L46.02,10.8L46.3,17.28L47.41,10.8L47.68,10.8L47.96,10.8L48.24,17.28L48.51,10.8L49.07,14.04L49.35,30.24L49.9,14.04L50.18,33.48L50.73,17.28L51.01,46.44L51.56,10.8L51.84,23.76L52.12,17.28L52.4,17.28L52.67,14.04L53.23,36.72L53.5,20.52L54.34,14.04L54.61,23.76L55.45,14.04L55.72,14.04L56.28,17.28L56.55,14.04L57.11,23.76L57.39,14.04L57.66,14.04L57.94,27L58.77,10.8L59.05,10.8L59.6,23.76L59.88,14.04L60.16,17.28L60.44,14.04L60.71,56.16L61.27,10.8L61.54,17.28L61.82,17.28L62.1,23.76L62.38,10.8L62.65,10.8L62.93,30.24L64.04,17.28L64.32,20.06L64.87,10.8L65.15,14.04L65.43,27L66.53,10.8L66.81,23.76L67.64,10.8L67.92,14.04L68.2,17.28L69.31,10.8L69.58,17.28L70.42,10.8L70.69,14.04L71.52,10.8L71.8,14.04L72.08,14.04L72.36,10.8L73.74,10.8L74.02,20.52L74.85,10.8L75.13,10.8L75.41,17.28L75.96,14.04L76.24,14.04L76.51,20.52L76.79,10.8L77.07,10.8L77.9,17.28L78.18,14.04L78.46,14.04L78.73,10.8L79.01,10.8L79.29,14.04L79.56,14.04L79.84,10.8L80.12,10.8L80.4,14.04L80.67,14.04L80.95,10.8L81.5,10.8L81.78,20.52L82.61,14.04L82.89,14.04L83.17,10.8L83.45,20.52L84,14.04L84.28,46.44L84.55,10.8L85.11,14.04L85.39,17.28L85.66,10.8L85.94,14.04L86.22,27L86.5,39.96L86.77,14.04L87.05,14.04L87.33,10.8L87.88,39.96L88.16,10.8L88.44,14.04L88.71,39.96L88.99,46.44L89.27,10.8L89.82,14.04L90.1,10.8L90.38,10.8L90.65,20.52L91.76,10.8L92.04,17.28L92.32,27L92.59,10.8L92.87,14.04L93.15,17.28L93.43,10.8L93.7,17.28L93.98,10.8L94.26,10.8L94.81,17.28L95.09,10.8L95.92,14.04L96.2,14.04L96.48,10.8L96.75,17.28L97.58,10.8L97.86,20.52L98.69,14.04L98.97,14.04L99.8,10.8L100.08,10.8L100.63,10.8L100.91,14.04L101.19,20.52L101.47,10.8L101.74,14.04L102.02,17.28L102.3,10.8L102.85,10.8L103.13,14.04L103.68,17.28L103.96,10.8L106.73,10.8L107.01,14.04L107.56,14.04L107.84,10.8L108.4,10.8L108.67,14.04L108.95,14.04L109.23,10.8L109.78,14.04L110.06,27L110.34,10.8L110.89,14.04L111.17,10.8L111.72,23.76L112,10.8L112.28,14.04L112.55,39.96L113.66,14.04L113.94,20.52L114.5,14.04L114.77,17.28L115.05,27L115.88,10.8L116.16,17.28L116.71,10.8L116.99,14.04L117.27,10.8L117.82,17.28L118.1,10.8L118.65,14.04L118.93,10.8L120.04,17.28L120.32,14.04L120.59,20.52L120.87,10.8L121.15,10.8L121.43,20.52L121.7,14.04L121.98,10.8L122.81,14.04L123.09,14.04L123.92,10.8L124.2,14.04L125.03,10.8L125.31,10.8L126.42,10.8L126.69,14.04L126.97,14.04L127.25,10.8L127.52,14.04L127.8,10.8L128.08,10.8L128.36,14.04L128.63,10.8L128.91,10.8L129.19,20.52L129.47,10.8L129.74,10.8L131.41,10.8L131.68,14.04L131.96,10.8L132.24,14.04L132.51,27L133.35,10.8L133.62,17.28L134.18,10.8L134.46,14.04L134.73,10.8L135.01,14.04L135.29,10.8L135.56,10.8L135.84,23.76L136.12,20.52L136.4,14.04L137.23,10.8L137.5,10.8L137.78,14.04L138.06,10.8L138.34,10.8L138.61,14.04L138.89,10.8L139.17,10.8L139.72,17.28L140,10.8L140.83,14.04L141.11,10.8L141.66,10.8L141.94,14.04L142.77,10.8L143.05,10.8L143.88,10.8L144.16,14.04L144.44,10.8L144.71,14.04L144.99,14.04L145.82,10.8L146.1,10.8L146.38,10.8L146.65,14.04L146.93,10.8L147.21,17.28L148.04,10.8L148.32,10.8L148.59,14.04L148.87,10.8L149.15,10.8L149.43,10.8L149.7,14.04L149.98,14.04L150.26,10.8L150.53,10.8L150.81,14.04L151.09,14.04L151.37,10.8L151.64,10.8L151.92,14.04L152.2,10.8L152.48,14.04L152.75,17.28L153.58,10.8L153.86,10.8L154.14,14.04L154.42,10.8L154.69,10.8L156.36,10.8L156.63,14.04L156.91,17.28L157.19,10.8L157.47,10.8L157.74,14.04L158.57,10.8L158.85,14.04L159.68,10.8L159.96,10.8L160.24,10.8L160.51,14.04L161.35,10.8L161.62,10.8L161.9,10.8L162.18,14.04L162.46,14.04L162.73,10.8L163.01,10.8L163.29,14.04L163.56,14.04L163.84,10.8L164.12,17.28L164.4,14.04L164.67,10.8L165.5,10.8L165.78,14.04L166.06,14.04L166.34,10.8L167.17,14.04L167.45,10.8L168,17.28L168.28,14.04L168.55,10.8L169.94,10.8L170.22,14.04L171.05,10.8L171.33,10.8L171.6,10.8L171.88,14.04L172.71,10.8L172.99,10.8L173.27,10.8L173.54,14.04L174.38,10.8L174.65,10.8L176.04,10.8L176.32,14.04L176.59,17.28L176.87,10.8L177.15,10.8L177.43,14.04L177.7,17.28L177.98,14.04L178.26,39.96L178.81,10.8L179.09,14.04L179.37,17.28L179.64,23.76L179.92,10.8L180.75,27L181.03,14.04L181.31,14.04L181.58,10.8L181.86,10.8L182.14,17.28L182.97,10.8L183.25,20.52L183.52,23.76L183.8,14.04L184.08,14.04L184.36,10.8L185.47,10.8L185.74,14.04L186.02,17.28L186.3,10.8L186.85,10.8L187.13,14.04L187.96,10.8L188.24,10.8L188.79,10.8L189.07,14.04L189.9,10.8L190.18,10.8L190.46,10.8L190.73,17.28L191.84,10.8L192.12,10.8L192.4,14.04L192.67,10.8L192.95,10.8L195.45,10.8L195.72,20.52L196,10.8" style="vector-effect: non-scaling-stroke; fill: none; stroke: rgb(255, 127, 14); stroke-opacity: 1; stroke-width: 2px; opacity: 1;"/></g><g class="points"/><g class="text"/></g></g></g><g class="overplot"/><path class="xlines-above crisp" d="M0,0" style="fill: none;"/><path class="ylines-above crisp" d="M0,0" style="fill: none;"/><g class="overlines-above"/><g class="xaxislayer-above"><g class="xtick"><text text-anchor="middle" x="0" y="289" transform="translate(60,0)" style="font-family: 'Open Sans', verdana, arial, sans-serif; font-size: 12px; fill: rgb(68, 68, 68); fill-opacity: 1; white-space: pre;">0</text></g><g class="xtick"><text text-anchor="middle" x="0" y="289" transform="translate(115.45,0)" style="font-family: 'Open Sans', verdana, arial, sans-serif; font-size: 12px; fill: rgb(68, 68, 68); fill-opacity: 1; white-space: pre;">200</text></g><g class="xtick"><text text-anchor="middle" x="0" y="289" transform="translate(170.89,0)" style="font-family: 'Open Sans', verdana, arial, sans-serif; font-size: 12px; fill: rgb(68, 68, 68); fill-opacity: 1; white-space: pre;">400</text></g><g class="xtick"><text text-anchor="middle" x="0" y="289" transform="translate(226.34,0)" style="font-family: 'Open Sans', verdana, arial, sans-serif; font-size: 12px; fill: rgb(68, 68, 68); fill-opacity: 1; white-space: pre;">600</text></g></g><g class="yaxislayer-above"><g class="ytick"><text text-anchor="end" x="59" y="4.199999999999999" transform="translate(0,265.2)" style="font-family: 'Open Sans', verdana, arial, sans-serif; font-size: 12px; fill: rgb(68, 68, 68); fill-opacity: 1; white-space: pre;">0</text></g><g class="ytick"><text text-anchor="end" x="59" y="4.199999999999999" transform="translate(0,226.32)" style="font-family: 'Open Sans', verdana, arial, sans-serif; font-size: 12px; fill: rgb(68, 68, 68); fill-opacity: 1; white-space: pre;">0.2</text></g><g class="ytick"><text text-anchor="end" x="59" y="4.199999999999999" transform="translate(0,187.44)" style="font-family: 'Open Sans', verdana, arial, sans-serif; font-size: 12px; fill: rgb(68, 68, 68); fill-opacity: 1; white-space: pre;">0.4</text></g><g class="ytick"><text text-anchor="end" x="59" y="4.199999999999999" transform="translate(0,148.56)" style="font-family: 'Open Sans', verdana, arial, sans-serif; font-size: 12px; fill: rgb(68, 68, 68); fill-opacity: 1; white-space: pre;">0.6</text></g><g class="ytick"><text text-anchor="end" x="59" y="4.199999999999999" transform="translate(0,109.68)" style="font-family: 'Open Sans', verdana, arial, sans-serif; font-size: 12px; fill: rgb(68, 68, 68); fill-opacity: 1; white-space: pre;">0.8</text></g><g class="ytick"><text text-anchor="end" x="59" y="4.199999999999999" transform="translate(0,70.8)" style="font-family: 'Open Sans', verdana, arial, sans-serif; font-size: 12px; fill: rgb(68, 68, 68); fill-opacity: 1; white-space: pre;">1</text></g></g><g class="overaxes-above"/></g></g><g class="polarlayer"/><g class="ternarylayer"/><g class="geolayer"/><g class="funnelarealayer"/><g class="pielayer"/><g class="treemaplayer"/><g class="sunburstlayer"/><g class="glimages"/><defs id="topdefs-06e58e"><g class="clips"/><clipPath id="legend06e58e"><rect width="99" height="48" x="0" y="0"/></clipPath></defs><g class="layer-above"><g class="imagelayer"/><g class="shapelayer"/></g><g class="infolayer"><g class="legend" pointer-events="all" transform="translate(259.92, 60)"><rect class="bg" shape-rendering="crispEdges" width="99" height="48" x="0" y="0" style="stroke: rgb(68, 68, 68); stroke-opacity: 1; fill: rgb(255, 255, 255); fill-opacity: 1; stroke-width: 0px;"/><g class="scrollbox" transform="translate(0, 0)" clip-path="url('#legend06e58e')"><g class="groups"><g class="traces" transform="translate(0, 14.5)" style="opacity: 1;"><text class="legendtext" text-anchor="start" x="40" y="4.680000000000001" style="font-family: 'Open Sans', verdana, arial, sans-serif; font-size: 12px; fill: rgb(68, 68, 68); fill-opacity: 1; white-space: pre;">train-loss</text><g class="layers" style="opacity: 1;"><g class="legendfill"/><g class="legendlines"><path class="js-line" d="M5,0h30" style="fill: none; stroke: rgb(31, 119, 180); stroke-opacity: 1; stroke-width: 2px;"/></g><g class="legendsymbols"><g class="legendpoints"/></g></g><rect class="legendtoggle" x="0" y="-9.5" width="93.82812881469727" height="19" style="fill: rgb(0, 0, 0); fill-opacity: 0;"/></g><g class="traces" transform="translate(0, 33.5)" style="opacity: 1;"><text class="legendtext" text-anchor="start" x="40" y="4.680000000000001" style="font-family: 'Open Sans', verdana, arial, sans-serif; font-size: 12px; fill: rgb(68, 68, 68); fill-opacity: 1; white-space: pre;">acc</text><g class="layers" style="opacity: 1;"><g class="legendfill"/><g class="legendlines"><path class="js-line" d="M5,0h30" style="fill: none; stroke: rgb(255, 127, 14); stroke-opacity: 1; stroke-width: 2px;"/></g><g class="legendsymbols"><g class="legendpoints"/></g></g><rect class="legendtoggle" x="0" y="-9.5" width="93.82812881469727" height="19" style="fill: rgb(0, 0, 0); fill-opacity: 0;"/></g></g></g><rect class="scrollbar" rx="20" ry="3" width="0" height="0" x="0" y="0" style="fill: rgb(128, 139, 164); fill-opacity: 1;"/></g><g class="g-gtitle"><text class="gtitle" x="185.495" y="30" text-anchor="middle" dy="0em" style="font-family: 'Open Sans', verdana, arial, sans-serif; font-size: 17px; fill: rgb(68, 68, 68); opacity: 1; font-weight: normal; white-space: pre;">train loss</text></g><g class="g-xtitle"/><g class="g-ytitle"/></g></svg>