<svg class="main-svg" xmlns="http://www.w3.org/2000/svg" xmlns:xlink="http://www.w3.org/1999/xlink" width="370.99" height="335.99" style="" viewBox="0 0 370.99 335.99"><rect x="0" y="0" width="370.99" height="335.99" style="fill: rgb(255, 255, 255); fill-opacity: 1;"/><defs id="defs-3496ee"><g class="clips"><clipPath id="clip3496eexyplot" class="plotclip"><rect width="196" height="216"/></clipPath><clipPath class="axesclip" id="clip3496eex"><rect x="60" y="0" width="196" height="335.99"/></clipPath><clipPath class="axesclip" id="clip3496eey"><rect x="0" y="60" width="370.99" height="216"/></clipPath><clipPath class="axesclip" id="clip3496eexy"><rect x="60" y="60" width="196" height="216"/></clipPath></g><g class="gradients"/></defs><g class="bglayer"/><g class="layer-below"><g class="imagelayer"/><g class="shapelayer"/></g><g class="cartesianlayer"><g class="subplot xy"><g class="layer-subplot"><g class="shapelayer"/><g class="imagelayer"/></g><g class="gridlayer"><g class="x"><path class="xgrid crisp" transform="translate(116.97999999999999,0)" d="M0,60v216" style="stroke: rgb(238, 238, 238); stroke-opacity: 1; stroke-width: 1px;"/><path class="xgrid crisp" transform="translate(173.95,0)" d="M0,60v216" style="stroke: rgb(238, 238, 238); stroke-opacity: 1; stroke-width: 1px;"/><path class="xgrid crisp" transform="translate(230.93,0)" d="M0,60v216" style="stroke: rgb(238, 238, 238); stroke-opacity: 1; stroke-width: 1px;"/></g><g class="y"><path class="ygrid crisp" transform="translate(0,226.32)" d="M60,0h196" style="stroke: rgb(238, 238, 238); stroke-opacity: 1; stroke-width: 1px;"/><path class="ygrid crisp" transform="translate(0,187.44)" d="M60,0h196" style="stroke: rgb(238, 238, 238); stroke-opacity: 1; stroke-width: 1px;"/><path class="ygrid crisp" transform="translate(0,148.56)" d="M60,0h196" style="stroke: rgb(238, 238, 238); stroke-opacity: 1; stroke-width: 1px;"/><path class="ygrid crisp" transform="translate(0,109.68)" d="M60,0h196" style="stroke: rgb(238, 238, 238); stroke-opacity: 1; stroke-width: 1px;"/><path class="ygrid crisp" transform="translate(0,70.8)" d="M60,0h196" style="stroke: rgb(238, 238, 238); stroke-opacity: 1; stroke-width: 1px;"/></g></g><g class="zerolinelayer"><path class="xzl zl crisp" transform="translate(60,0)" d="M0,60v216" style="stroke: rgb(68, 68, 68); stroke-opacity: 1; stroke-width: 1px;"/><path class="yzl zl crisp" transform="translate(0,265.2)" d="M60,0h196" style="stroke: rgb(68, 68, 68); stroke-opacity: 1; stroke-width: 1px;"/></g><path class="xlines-below"/><path class="ylines-below"/><g class="overlines-below"/><g class="xaxislayer-below"/><g class="yaxislayer-below"/><g class="overaxes-below"/><g class="plot" transform="translate(60, 60)" clip-path="url('#clip3496eexyplot')"><g class="scatterlayer mlayer"><g class="trace scatter trace4d9590" style="stroke-miterlimit: 2; opacity: 1;"><g class="fills"/><g class="errorbars"/><g class="lines"><path class="js-line" d="M0,205.2L1.14,70.15L1.71,70.52L2.85,71.03L3.42,76.08L3.99,74.99L4.56,77.54L5.7,70.9L6.27,79.7L6.84,77.36L7.41,81.95L8.55,94.35L9.12,86.31L9.69,90.59L10.26,103.25L10.83,96.41L11.4,97.53L11.97,115.99L12.53,105.5L13.1,114.14L13.67,100.61L14.24,108.85L15.38,90.72L15.95,98.8L16.52,122.56L17.09,116.35L17.66,75.84L18.23,126.46L18.8,119.85L19.37,122.99L19.94,115.82L20.51,139.97L21.08,128.18L21.65,139.03L22.22,133.85L22.79,113.9L23.36,113.96L23.93,100.78L24.5,115.11L25.07,114.67L25.64,100.34L26.78,130.88L27.35,114.99L27.92,150.61L28.49,109.17L29.63,134.57L30.2,133.87L30.77,132.3L31.34,116.64L31.91,119.95L32.48,153.08L33.05,96.6L33.62,132.55L34.19,103.71L34.76,146.72L35.33,155.55L35.9,129.64L36.47,127.46L37.03,146.11L37.6,152.16L38.17,110.98L38.74,145.07L39.31,112.08L39.88,152.17L40.45,149.97L41.02,158.79L41.59,145.19L42.16,165.33L42.73,125.65L43.3,146.09L43.87,141.45L44.44,146.61L45.01,176.64L45.58,162.32L46.15,160.95L46.72,169.76L47.29,174.75L47.86,159.96L48.43,165.35L49,146.01L49.57,146.4L50.14,161L50.71,162.88L51.28,179.54L52.42,169.75L52.99,146.57L53.56,175.29L54.13,160.94L55.27,114.81L55.84,165.48L56.41,187.01L56.98,126.67L57.55,112.24L58.12,164.85L58.69,184.89L59.26,125.98L60.4,155.92L60.97,118.42L62.1,175.02L62.67,163.37L63.24,181.45L63.81,133.15L64.95,176.86L65.52,171.32L66.09,145.88L66.66,172.26L67.23,162.91L67.8,172.07L68.37,176.76L68.94,170.03L70.08,161.83L70.65,179.88L71.22,172.22L71.79,131.55L72.93,169.45L73.5,169.58L74.64,185.15L75.21,188.99L75.78,185.11L76.35,135.71L76.92,190.53L77.49,157.68L78.06,178.51L78.63,148.71L79.2,146.93L79.77,177.72L80.34,138.22L80.91,164.51L81.48,161.67L82.05,56.93L83.19,192.48L83.76,88.8L84.9,167.59L85.47,122.47L86.03,180.71L86.6,176.46L87.17,158.79L87.74,165.58L88.31,158.58L89.45,171.85L90.02,166.41L90.59,152.06L91.16,168.67L91.73,171.02L92.3,168.05L92.87,179.7L93.44,163.81L94.58,181.97L95.15,165.45L95.72,177.3L96.29,171.22L96.86,180.71L97.43,174.78L98,190.56L98.57,183.11L99.14,148.27L99.71,185.71L100.28,185.08L100.85,172.64L101.42,186.95L101.99,182.19L102.56,191.46L103.13,175.89L103.7,194.24L104.27,158.23L104.84,180.73L105.41,152.86L105.98,161.55L106.55,194.18L107.69,171.64L108.26,191.27L108.83,177.24L109.4,178.07L109.97,171.15L110.53,171.49L111.1,188.5L111.67,139.65L112.24,189.6L112.81,133.42L113.38,175.84L113.95,195.64L114.52,129.64L115.09,132.85L115.66,167.63L116.23,196.57L116.8,145.42L117.94,182.45L118.51,179.1L119.08,190.3L119.65,164.35L120.22,184.39L120.79,173.23L121.36,167.57L121.93,184.74L122.5,188.4L123.07,184.03L123.64,171.95L124.21,190.22L124.78,190.39L125.35,183.5L125.92,177.07L126.49,177.82L127.06,193.34L127.63,198.89L128.2,179.44L128.77,185.93L129.34,178.31L130.48,193.22L131.05,192.48L132.19,189.79L132.76,159.85L133.33,170.86L133.9,152.91L134.47,191.7L135.03,180.95L135.6,135.93L136.17,197.58L136.74,146.5L137.88,198.15L138.45,150.96L139.02,185.74L139.59,183.6L140.16,183.49L140.73,167.15L141.3,199.66L141.87,188.11L142.44,196.66L143.01,185.67L143.58,190L144.72,171.64L145.29,195.24L147,166.89L147.57,196.89L148.14,174.31L148.71,200.59L149.85,196.18L150.42,165.28L151.56,195.54L152.13,191.33L152.7,185.07L153.27,193.21L153.84,193.69L154.41,131.36L154.98,198.35L155.55,141.69L156.69,191.48L157.26,138.03L158.4,196.49L158.97,190.04L159.53,170.33L160.1,189.48L160.67,166.19L161.24,193.93L161.81,150.83L162.38,189.05L162.95,196.58L163.52,155.63L164.09,137.55L164.66,187.07L165.8,131.74L166.37,174.12L166.94,180.35L167.51,173.29L168.08,156.99L168.65,177L169.22,191.11L169.79,186.33L170.36,172.33L170.93,184.61L171.5,185.71L172.07,174.57L173.78,198.13L174.35,195.61L174.92,190.83L175.49,191.31L176.06,199.92L176.63,177.18L177.2,185.99L177.77,199.87L178.34,188.74L178.91,176.73L179.48,183.9L180.05,201.25L180.62,196.69L181.19,176.04L181.76,190.42L182.33,180.81L183.47,202.5L184.03,201.83L184.6,196.89L185.17,176.9L185.74,196.88L186.31,197.09L186.88,192.56L188.02,194.93L188.59,189.7L189.73,203.3L190.3,192.51L191.44,194.6L192.01,192.58L193.15,199.14L193.72,194.21L194.29,195.42L194.86,200.69L195.43,199.84L196,194.73" style="vector-effect: non-scaling-stroke; fill: none; stroke: rgb(31, 119, 180); stroke-opacity: 1; stroke-width: 2px; opacity: 1;"/></g><g class="points"/><g class="text"/></g><g class="trace scatter trace2e7b14" style="stroke-miterlimit: 2; opacity: 1;"><g class="fills"/><g class="errorbars"/><g class="lines"><path class="js-line" d="M0,205.2L0.57,95.04L1.14,111.24L1.71,111.24L2.28,130.68L2.85,101.52L3.42,127.44L3.99,114.48L4.56,117.72L5.13,95.04L5.7,88.56L6.27,117.72L7.41,95.04L7.98,95.04L9.12,56.16L9.69,108L11.4,52.92L11.97,59.4L12.53,62.64L13.1,82.08L14.24,49.68L14.81,56.16L15.95,101.52L16.52,62.64L17.09,39.96L17.66,59.4L18.23,33.48L18.8,62.64L19.37,69.12L19.94,101.52L21.08,46.44L21.65,56.16L22.22,36.72L22.79,39.96L23.36,46.44L23.93,52.92L24.5,72.65L25.07,82.08L25.64,49.68L26.21,27L26.78,33.48L27.35,46.44L27.92,39.96L28.49,91.8L30.2,49.68L30.77,33.48L31.91,43.2L32.48,43.2L33.05,88.56L33.62,46.44L34.19,49.68L34.76,23.76L35.9,52.92L36.47,78.84L37.6,20.52L38.17,39.96L38.74,23.76L39.31,82.08L40.45,20.52L41.02,27L41.59,27L42.16,30.24L42.73,72.36L43.3,46.44L44.44,27L45.01,20.52L46.15,33.48L46.72,17.28L48.43,36.72L49,28.47L49.57,36.72L50.14,23.76L50.71,23.76L51.28,14.04L51.85,39.96L52.42,23.76L52.99,30.24L53.56,23.76L54.13,36.72L54.7,27L55.27,62.64L55.84,30.24L56.41,10.8L56.98,36.72L58.12,49.68L58.69,14.04L59.83,36.72L60.4,30.24L60.97,56.16L61.53,23.76L62.1,20.52L62.67,23.76L63.24,10.8L63.81,33.48L64.38,39.96L64.95,23.76L66.09,33.48L66.66,23.76L67.8,30.24L68.37,33.48L68.94,33.48L69.51,23.76L71.22,23.76L71.79,52.92L72.93,23.76L73.5,15.22L74.64,27L75.21,27L75.78,14.04L76.35,30.24L76.92,23.76L77.49,39.96L78.63,30.24L79.2,27L79.77,23.76L80.34,59.4L81.48,23.76L82.05,56.16L83.19,10.8L83.76,75.6L84.33,62.64L84.9,17.28L85.47,33.48L86.03,14.04L86.6,17.28L87.17,27L88.31,43.2L88.88,36.72L90.02,17.28L90.59,30.24L91.16,30.24L91.73,27L92.3,30.24L92.87,23.76L93.44,30.24L94.01,20.52L94.58,14.04L95.15,30.24L95.72,20.52L96.29,23.76L96.86,23.76L97.43,20.52L98,15.22L98.57,20.52L99.14,30.24L99.71,20.52L100.85,23.76L101.42,17.28L101.99,27L102.56,14.04L103.7,20.52L104.27,43.2L104.84,17.28L105.41,27L106.55,14.04L107.12,33.48L108.26,17.28L108.83,23.76L109.4,17.28L109.97,33.48L110.53,36.72L111.1,10.8L111.67,33.48L112.24,14.04L112.81,49.68L113.38,36.72L113.95,14.04L114.52,33.48L116.23,14.04L116.8,59.4L117.94,20.52L118.51,20.52L119.08,14.04L119.65,23.76L120.22,20.52L120.79,27L121.36,30.24L121.93,27L122.5,19.64L123.07,20.52L123.64,27L124.21,10.8L124.78,20.52L125.92,27L126.49,23.76L127.63,10.8L128.2,17.28L128.77,14.04L129.34,27L130.48,10.8L131.05,14.04L131.62,14.04L132.19,17.28L132.76,30.24L133.33,23.76L133.9,39.96L134.47,14.04L135.03,17.28L135.6,27L136.17,14.04L136.74,59.4L137.88,10.8L138.45,30.24L139.02,20.52L139.59,23.76L140.16,20.52L140.73,23.76L141.3,10.8L141.87,14.04L142.44,14.04L143.01,17.28L143.58,14.04L144.72,30.24L145.29,10.8L146.43,20.52L147,19.64L147.57,10.8L148.14,36.72L149.28,10.8L149.85,14.04L150.42,20.52L150.99,14.04L151.56,10.8L152.13,17.28L152.7,23.76L153.27,17.28L153.84,17.28L154.41,43.2L154.98,10.8L155.55,52.92L156.69,17.28L157.26,33.48L158.4,10.8L158.97,30.24L159.53,46.44L160.1,20.52L160.67,27L161.24,17.28L161.81,30.24L162.38,14.04L163.52,30.24L164.09,46.44L165.23,20.52L165.8,27L166.94,17.28L167.51,39.96L168.08,43.2L168.65,27L169.79,10.8L170.36,20.52L170.93,20.52L171.5,15.22L172.07,43.2L172.64,27L173.78,10.8L174.35,10.8L175.49,14.04L176.06,10.8L176.63,20.52L177.2,14.04L177.77,10.8L178.34,14.04L179.48,17.28L180.05,14.04L181.19,23.76L181.76,20.52L184.03,10.8L184.6,17.28L185.17,23.76L185.74,14.04L186.31,10.8L186.88,14.04L188.02,17.28L188.59,17.28L189.73,10.8L190.3,14.04L190.87,17.28L191.44,10.8L192.01,17.28L192.58,14.04L194.29,14.04L194.86,10.8L196,24.05" style="vector-effect: non-scaling-stroke; fill: none; stroke: rgb(255, 127, 14); stroke-opacity: 1; stroke-width: 2px; opacity: 1;"/></g><g class="points"/><g class="text"/></g></g></g><g class="overplot"/><path class="xlines-above crisp" d="M0,0" style="fill: none;"/><path class="ylines-above crisp" d="M0,0" style="fill: none;"/><g class="overlines-above"/><g class="xaxislayer-above"><g class="xtick"><text text-anchor="middle" x="0" y="289" transform="translate(60,0)" style="font-family: 'Open Sans', verdana, arial, sans-serif; font-size: 12px; fill: rgb(68, 68, 68); fill-opacity: 1; white-space: pre;">0</text></g><g class="xtick"><text text-anchor="middle" x="0" y="289" transform="translate(116.97999999999999,0)" style="font-family: 'Open Sans', verdana, arial, sans-serif; font-size: 12px; fill: rgb(68, 68, 68); fill-opacity: 1; white-space: pre;">100</text></g><g class="xtick"><text text-anchor="middle" x="0" y="289" transform="translate(173.95,0)" style="font-family: 'Open Sans', verdana, arial, sans-serif; font-size: 12px; fill: rgb(68, 68, 68); fill-opacity: 1; white-space: pre;">200</text></g><g class="xtick"><text text-anchor="middle" x="0" y="289" transform="translate(230.93,0)" style="font-family: 'Open Sans', verdana, arial, sans-serif; font-size: 12px; fill: rgb(68, 68, 68); fill-opacity: 1; white-space: pre;">300</text></g></g><g class="yaxislayer-above"><g class="ytick"><text text-anchor="end" x="59" y="4.199999999999999" transform="translate(0,265.2)" style="font-family: 'Open Sans', verdana, arial, sans-serif; font-size: 12px; fill: rgb(68, 68, 68); fill-opacity: 1; white-space: pre;">0</text></g><g class="ytick"><text text-anchor="end" x="59" y="4.199999999999999" transform="translate(0,226.32)" style="font-family: 'Open Sans', verdana, arial, sans-serif; font-size: 12px; fill: rgb(68, 68, 68); fill-opacity: 1; white-space: pre;">0.2</text></g><g class="ytick"><text text-anchor="end" x="59" y="4.199999999999999" transform="translate(0,187.44)" style="font-family: 'Open Sans', verdana, arial, sans-serif; font-size: 12px; fill: rgb(68, 68, 68); fill-opacity: 1; white-space: pre;">0.4</text></g><g class="ytick"><text text-anchor="end" x="59" y="4.199999999999999" transform="translate(0,148.56)" style="font-family: 'Open Sans', verdana, arial, sans-serif; font-size: 12px; fill: rgb(68, 68, 68); fill-opacity: 1; white-space: pre;">0.6</text></g><g class="ytick"><text text-anchor="end" x="59" y="4.199999999999999" transform="translate(0,109.68)" style="font-family: 'Open Sans', verdana, arial, sans-serif; font-size: 12px; fill: rgb(68, 68, 68); fill-opacity: 1; white-space: pre;">0.8</text></g><g class="ytick"><text text-anchor="end" x="59" y="4.199999999999999" transform="translate(0,70.8)" style="font-family: 'Open Sans', verdana, arial, sans-serif; font-size: 12px; fill: rgb(68, 68, 68); fill-opacity: 1; white-space: pre;">1</text></g></g><g class="overaxes-above"/></g></g><g class="polarlayer"/><g class="ternarylayer"/><g class="geolayer"/><g class="funnelarealayer"/><g class="pielayer"/><g class="treemaplayer"/><g class="sunburstlayer"/><g class="glimages"/><defs id="topdefs-3496ee"><g class="clips"/><clipPath id="legend3496ee"><rect width="99" height="48" x="0" y="0"/></clipPath></defs><g class="layer-above"><g class="imagelayer"/><g class="shapelayer"/></g><g class="infolayer"><g class="legend" pointer-events="all" transform="translate(259.92, 60)"><rect class="bg" shape-rendering="crispEdges" width="99" height="48" x="0" y="0" style="stroke: rgb(68, 68, 68); stroke-opacity: 1; fill: rgb(255, 255, 255); fill-opacity: 1; stroke-width: 0px;"/><g class="scrollbox" transform="translate(0, 0)" clip-path="url('#legend3496ee')"><g class="groups"><g class="traces" transform="translate(0, 14.5)" style="opacity: 1;"><text class="legendtext" text-anchor="start" x="40" y="4.680000000000001" style="font-family: 'Open Sans', verdana, arial, sans-serif; font-size: 12px; fill: rgb(68, 68, 68); fill-opacity: 1; white-space: pre;">train-loss</text><g class="layers" style="opacity: 1;"><g class="legendfill"/><g class="legendlines"><path class="js-line" d="M5,0h30" style="fill: none; stroke: rgb(31, 119, 180); stroke-opacity: 1; stroke-width: 2px;"/></g><g class="legendsymbols"><g class="legendpoints"/></g></g><rect class="legendtoggle" x="0" y="-9.5" width="93.82812881469727" height="19" style="fill: rgb(0, 0, 0); fill-opacity: 0;"/></g><g class="traces" transform="translate(0, 33.5)" style="opacity: 1;"><text class="legendtext" text-anchor="start" x="40" y="4.680000000000001" style="font-family: 'Open Sans', verdana, arial, sans-serif; font-size: 12px; fill: rgb(68, 68, 68); fill-opacity: 1; white-space: pre;">acc</text><g class="layers" style="opacity: 1;"><g class="legendfill"/><g class="legendlines"><path class="js-line" d="M5,0h30" style="fill: none; stroke: rgb(255, 127, 14); stroke-opacity: 1; stroke-width: 2px;"/></g><g class="legendsymbols"><g class="legendpoints"/></g></g><rect class="legendtoggle" x="0" y="-9.5" width="93.82812881469727" height="19" style="fill: rgb(0, 0, 0); fill-opacity: 0;"/></g></g></g><rect class="scrollbar" rx="20" ry="3" width="0" height="0" x="0" y="0" style="fill: rgb(128, 139, 164); fill-opacity: 1;"/></g><g class="g-gtitle"><text class="gtitle" x="185.495" y="30" text-anchor="middle" dy="0em" style="font-family: 'Open Sans', verdana, arial, sans-serif; font-size: 17px; fill: rgb(68, 68, 68); opacity: 1; font-weight: normal; white-space: pre;">train loss</text></g><g class="g-xtitle"/><g class="g-ytitle"/></g></svg>