<svg class="main-svg" xmlns="http://www.w3.org/2000/svg" xmlns:xlink="http://www.w3.org/1999/xlink" width="370.99" height="335.99" style="" viewBox="0 0 370.99 335.99"><rect x="0" y="0" width="370.99" height="335.99" style="fill: rgb(255, 255, 255); fill-opacity: 1;"/><defs id="defs-8bd263"><g class="clips"><clipPath id="clip8bd263xyplot" class="plotclip"><rect width="196" height="216"/></clipPath><clipPath class="axesclip" id="clip8bd263x"><rect x="60" y="0" width="196" height="335.99"/></clipPath><clipPath class="axesclip" id="clip8bd263y"><rect x="0" y="60" width="370.99" height="216"/></clipPath><clipPath class="axesclip" id="clip8bd263xy"><rect x="60" y="60" width="196" height="216"/></clipPath></g><g class="gradients"/></defs><g class="bglayer"/><g class="layer-below"><g class="imagelayer"/><g class="shapelayer"/></g><g class="cartesianlayer"><g class="subplot xy"><g class="layer-subplot"><g class="shapelayer"/><g class="imagelayer"/></g><g class="gridlayer"><g class="x"><path class="xgrid crisp" transform="translate(129.14,0)" d="M0,60v216" style="stroke: rgb(238, 238, 238); stroke-opacity: 1; stroke-width: 1px;"/><path class="xgrid crisp" transform="translate(198.27,0)" d="M0,60v216" style="stroke: rgb(238, 238, 238); stroke-opacity: 1; stroke-width: 1px;"/></g><g class="y"><path class="ygrid crisp" transform="translate(0,226.32)" d="M60,0h196" style="stroke: rgb(238, 238, 238); stroke-opacity: 1; stroke-width: 1px;"/><path class="ygrid crisp" transform="translate(0,187.44)" d="M60,0h196" style="stroke: rgb(238, 238, 238); stroke-opacity: 1; stroke-width: 1px;"/><path class="ygrid crisp" transform="translate(0,148.56)" d="M60,0h196" style="stroke: rgb(238, 238, 238); stroke-opacity: 1; stroke-width: 1px;"/><path class="ygrid crisp" transform="translate(0,109.68)" d="M60,0h196" style="stroke: rgb(238, 238, 238); stroke-opacity: 1; stroke-width: 1px;"/><path class="ygrid crisp" transform="translate(0,70.8)" d="M60,0h196" style="stroke: rgb(238, 238, 238); stroke-opacity: 1; stroke-width: 1px;"/></g></g><g class="zerolinelayer"><path class="xzl zl crisp" transform="translate(60,0)" d="M0,60v216" style="stroke: rgb(68, 68, 68); stroke-opacity: 1; stroke-width: 1px;"/><path class="yzl zl crisp" transform="translate(0,265.2)" d="M60,0h196" style="stroke: rgb(68, 68, 68); stroke-opacity: 1; stroke-width: 1px;"/></g><path class="xlines-below"/><path class="ylines-below"/><g class="overlines-below"/><g class="xaxislayer-below"/><g class="yaxislayer-below"/><g class="overaxes-below"/><g class="plot" transform="translate(60, 60)" clip-path="url('#clip8bd263xyplot')"><g class="scatterlayer mlayer"><g class="trace scatter tracecb55e9" style="stroke-miterlimit: 2; opacity: 1;"><g class="fills"/><g class="errorbars"/><g class="lines"><path class="js-line" d="M0,205.2L0.35,70.31L1.04,76.29L1.38,87.34L1.73,101.68L2.07,75.79L3.11,101.7L3.46,90.3L3.8,91.83L4.15,103.26L5.19,121.36L5.53,107.51L5.88,85.3L6.22,102.43L6.57,122.85L6.91,128.99L7.26,118.73L7.6,106.31L7.95,111.06L8.3,114.31L8.64,132.7L8.99,111.43L9.33,105.21L9.68,104.76L10.02,147.09L10.37,131.62L11.06,132.61L11.41,130.93L12.44,140.26L12.79,150.03L13.14,134.76L13.48,144.06L13.83,147.94L14.52,141.17L14.86,149.95L15.21,161.04L15.56,137.79L15.9,141.1L16.25,154.8L16.59,156.08L16.94,155.03L17.28,137.22L17.63,144.81L17.98,170.92L18.32,158.8L18.67,158.99L19.01,180.38L19.36,175.86L19.7,191.17L20.05,190.6L20.4,179.19L21.78,151.41L22.12,177.81L22.47,123.69L22.81,185.51L23.16,199.97L23.51,141.5L24.2,145.65L24.54,152.78L24.89,122.05L25.23,164.76L25.93,188.49L26.27,170.02L26.62,159.6L26.96,171.16L27.31,186.88L27.65,204.51L28,172.07L28.35,172.83L28.69,177.83L29.04,175.18L29.38,188.35L30.07,170.34L30.42,184.79L31.11,192.4L31.46,183.63L31.8,184.24L32.15,194.85L32.84,178.18L33.19,193.47L33.88,174.74L34.22,174.96L34.57,200.97L34.91,197.53L35.26,181.77L35.6,183.57L35.95,198.83L36.64,162.41L36.99,201.16L37.33,135.89L37.68,186.52L38.02,160.02L39.06,191.88L39.41,197.56L39.75,199.27L40.1,175.88L40.44,193.71L40.79,179.21L41.14,164.47L41.83,187.89L42.17,177.84L42.52,192.94L42.86,174.72L43.21,199.7L43.56,195.82L43.9,170L44.25,153.87L44.59,193.57L44.94,191.65L45.28,193.64L45.63,199.16L45.98,195.14L46.32,202.67L47.36,187.64L47.7,192.12L48.05,178.89L48.4,182.46L48.74,191.7L49.09,192.66L49.43,188.04L49.78,195.85L50.12,186.37L50.47,175.01L50.81,202.91L51.16,195.19L51.51,196.99L51.85,196.89L52.2,183.78L52.54,196.51L52.89,199.02L53.23,199.06L53.58,180.33L53.93,200.2L54.27,182.15L54.62,182.03L54.96,198.76L55.31,145.98L55.65,186.9L56,122.86L57.04,196.91L57.38,194.43L58.07,199.88L58.42,195.6L58.77,194.22L59.11,188.51L59.46,191.68L59.8,190.12L60.15,187.81L60.49,192.1L60.84,180.43L61.19,173.97L61.53,194.79L61.88,201.13L62.22,197.61L62.57,178.5L62.91,190.88L63.26,175.23L64.3,199.07L64.64,202.94L65.33,197.14L65.68,200.42L66.02,199.41L66.37,182.69L66.72,197.19L67.06,192.66L67.41,183.5L68.1,204.02L68.44,199.52L68.79,191.71L69.83,204.09L70.17,201.57L70.52,202.19L70.86,183.33L71.21,203.13L71.9,201.88L72.25,200.69L72.59,204.33L73.28,203.86L73.63,201.64L73.98,201.67L74.32,197.17L74.67,170.39L75.01,173.61L75.36,176.2L75.7,204.27L76.4,202.7L76.74,193.17L77.78,202.6L78.12,190.06L78.47,191.82L78.81,200.02L79.16,200.03L79.51,186.13L79.85,201.95L80.54,200.36L80.89,199.44L81.23,203.57L81.58,195.56L82.27,204.61L82.62,203.73L82.96,204.48L83.31,204.29L83.65,201.67L84,191.66L84.35,204.69L85.04,198.8L85.38,192.95L86.42,204.74L86.77,169.76L87.46,203.37L87.8,196.21L88.15,203.64L89.19,204.52L89.53,204.14L90.22,204.33L90.57,199.18L90.91,202.89L91.26,204.36L91.6,203.71L91.95,202.04L92.3,203.14L92.64,192.6L93.33,201.72L93.68,199.75L94.02,205.02L94.72,202.48L95.06,203.38L95.41,202.43L95.75,196.48L96.1,204.58L96.44,199.58L96.79,200.35L97.83,205.13L98.17,182.21L98.52,205.08L98.86,204.43L99.21,186.19L99.56,182.35L99.9,204.9L100.59,200.39L100.94,200.93L101.28,202.06L101.63,202.39L101.98,201.04L102.67,195.66L103.01,204.62L103.36,205L103.7,185.4L104.4,204.63L104.74,201.02L105.09,203.2L105.43,193.55L105.78,201.51L106.12,204.17L106.47,188.06L106.81,203.87L107.16,203.84L108.2,203.22L108.54,201.95L108.89,200.46L109.23,203.75L109.93,202.42L110.27,204.74L110.62,204.99L110.96,204.09L111.31,204.61L111.65,203.33L112,205.04L112.35,196.61L112.69,205.04L113.04,180.13L113.38,205.11L114.07,203.84L114.42,177.96L114.77,204.89L115.11,199.6L115.46,197.39L115.8,189.64L116.15,203.59L116.49,205.12L116.84,198L117.19,205L117.53,200.95L117.88,174.23L118.22,205.01L118.57,203.73L118.91,174.12L120.3,202.15L120.64,194.65L120.99,183.24L121.33,199.55L121.68,203.04L122.02,181.61L122.37,204.42L122.72,204.15L123.06,200.04L124.1,203.37L124.44,200.76L125.14,203.71L125.48,203.26L125.83,199.96L126.17,197.13L126.52,204.74L127.21,200.92L127.56,202.94L127.9,202.21L128.25,199.84L128.59,204.41L128.94,204.13L129.28,199.92L129.63,202.46L129.98,199.44L130.32,205.13L130.67,205.06L131.01,191.43L131.36,205.06L132.05,204.86L132.4,205.02L132.74,192.35L133.09,204.36L133.43,205.16L133.78,204.33L134.12,169.51L135.16,205L135.51,204.94L136.2,203.34L136.54,204.4L137.23,194L137.58,204.92L137.93,204.42L138.27,205.03L138.62,201.54L139.31,173.86L139.65,201.31L140,203.79L140.35,190.16L140.69,167.3L141.04,203.67L141.38,203.65L141.73,204.44L142.07,201.65L142.42,180.52L142.77,204.22L143.11,187.01L143.46,187.37L143.8,201.56L144.49,200.83L144.84,186.31L145.88,203.8L146.22,203.24L146.57,204.83L146.91,201.94L147.26,204.7L147.6,201.4L147.95,204.84L148.3,203.05L148.64,199.97L148.99,204.38L149.33,203.2L149.68,201.83L150.37,204.46L150.72,203.01L151.06,204.93L151.41,203.42L151.75,203.8L152.79,204.93L153.14,205.09L153.83,204.77L154.17,201.58L155.21,205.16L155.56,205.12L158.32,205.05L158.67,204.3L159.7,205.18L160.05,195.39L160.4,205.08L160.74,204.97L161.09,201.68L162.12,205.15L162.47,204.85L163.16,205.18L163.51,203.62L163.85,202.5L164.2,205.14L165.23,204.82L165.58,203.19L165.93,205.2L166.62,204.8L166.96,205.04L169.04,205.11L169.38,205.19L170.77,205.2L171.11,202.24L172.15,205.18L172.49,205.08L172.84,205.13L173.19,203.25L174.22,205.17L174.57,205.07L175.95,205.18L176.3,205.18L178.37,205.19L178.72,205.18L187.01,205.18L187.36,203.12L188.4,205.17L188.74,187.32L189.09,205.19L189.43,204.63L189.78,184.3L190.81,205.18L191.16,205.14L191.51,205.12L191.85,203.98L192.54,205.16L192.89,203.5L193.58,205.2L193.93,204.83L194.27,193.36L195.31,204.98L195.65,204.92L196,204.61" style="vector-effect: non-scaling-stroke; fill: none; stroke: rgb(31, 119, 180); stroke-opacity: 1; stroke-width: 2px; opacity: 1;"/></g><g class="points"/><g class="text"/></g><g class="trace scatter trace93b8c7" style="stroke-miterlimit: 2; opacity: 1;"><g class="fills"/><g class="errorbars"/><g class="lines"><path class="js-line" d="M0,205.2L1.04,133.92L1.38,146.88L1.73,43.2L2.07,72.36L2.42,62.64L2.77,56.16L3.11,153.36L3.8,146.88L4.15,169.56L4.49,176.04L4.84,46.44L5.19,36.72L5.53,59.4L5.88,65.88L6.22,56.16L6.91,39.96L7.26,49.68L7.6,39.96L7.95,52.92L8.64,36.72L8.99,39.96L9.33,36.72L9.68,46.44L10.02,33.48L10.72,27L11.06,30.24L11.41,27L11.75,39.96L13.14,20.52L13.48,27L14.17,43.2L14.52,20.52L15.21,23.76L15.56,36.72L15.9,39.96L16.25,23.76L16.59,30.24L16.94,14.04L17.28,36.72L17.63,27L17.98,27L18.32,33.48L18.67,30.24L19.01,20.52L19.36,20.52L19.7,14.04L20.05,10.8L20.4,20.52L21.09,30.24L21.43,20.52L21.78,20.52L22.12,23.76L22.47,43.2L22.81,20.52L23.16,10.8L24.2,36.72L24.54,33.48L24.89,78.84L25.23,43.2L25.58,20.52L25.93,10.8L26.27,20.52L26.62,20.52L26.96,20.52L27.31,14.04L27.65,10.8L28,17.28L28.35,17.28L28.69,23.76L29.04,36.72L29.38,14.04L29.73,27L30.07,23.76L30.42,23.76L31.46,14.04L31.8,14.04L32.49,23.76L32.84,17.28L33.53,17.28L33.88,20.52L34.22,23.76L34.57,10.8L35.26,17.28L35.6,14.04L35.95,10.8L36.3,17.28L36.64,30.24L36.99,14.04L38.02,30.24L38.37,20.52L38.72,20.52L39.06,17.28L39.41,17.28L39.75,10.8L40.1,20.52L40.44,17.28L40.79,17.28L41.14,27L41.48,20.52L41.83,20.52L42.86,30.24L43.21,10.8L43.56,10.8L43.9,20.52L44.25,30.24L44.59,17.28L45.28,17.28L45.63,14.04L45.98,14.04L46.32,10.8L47.36,23.76L47.7,17.28L48.05,17.28L48.4,20.52L49.09,14.04L49.43,20.52L49.78,14.04L50.12,17.28L50.47,17.28L50.81,10.8L51.16,17.28L51.51,14.04L51.85,14.04L52.2,23.76L53.23,10.8L53.58,20.52L54.27,14.04L54.62,17.28L54.96,17.28L55.31,75.6L55.65,14.04L56.35,17.28L56.69,10.8L57.38,20.52L57.73,14.04L58.07,14.04L58.42,17.28L58.77,20.52L59.11,17.28L59.46,14.04L60.49,14.04L60.84,20.52L62.22,10.8L62.57,23.76L62.91,20.52L63.26,27L64.99,10.8L65.33,10.8L65.68,10.8L66.02,14.04L67.06,17.28L67.41,17.28L68.1,10.8L68.44,14.04L68.79,14.04L69.14,10.8L70.17,14.04L70.52,14.04L70.86,17.28L71.21,10.8L71.56,14.04L71.9,10.8L72.25,10.8L73.28,10.8L73.63,17.28L74.67,14.04L75.01,17.28L75.36,17.28L75.7,10.8L77.09,20.52L77.43,10.8L77.78,10.8L78.12,14.04L78.47,17.28L78.81,14.04L79.16,14.04L79.51,17.28L79.85,10.8L80.2,20.52L80.54,10.8L80.89,14.04L81.93,10.8L82.27,10.8L83.65,10.8L84,20.52L84.69,10.8L85.04,14.04L85.73,14.04L86.07,17.28L86.42,10.8L86.77,20.52L87.46,10.8L87.8,14.04L88.84,10.8L89.19,10.8L90.22,10.8L90.57,14.04L91.6,10.8L91.95,14.04L92.99,10.8L93.33,10.8L94.37,14.04L94.72,14.04L95.06,14.04L95.41,10.8L96.44,14.04L96.79,14.04L97.83,10.8L98.17,20.52L98.86,10.8L99.21,17.28L100.59,10.8L100.94,10.8L101.28,17.28L101.63,14.04L101.98,14.04L102.32,14.04L102.67,17.28L103.36,10.8L103.7,14.04L104.05,14.04L104.4,10.8L105.43,14.04L105.78,10.8L106.12,10.8L106.47,17.28L107.51,10.8L107.85,10.8L109.23,10.8L109.58,14.04L109.93,14.04L110.27,10.8L112,10.8L112.35,14.04L113.38,10.8L113.73,10.8L114.07,10.8L114.42,23.76L114.77,10.8L115.11,14.04L115.46,14.04L115.8,14.04L116.15,10.8L116.49,10.8L116.84,14.04L117.19,10.8L117.53,14.04L117.88,23.76L118.57,10.8L118.91,20.52L120.3,10.8L120.64,23.76L120.99,27L121.33,10.8L121.68,10.8L122.02,20.52L123.06,10.8L123.41,10.8L124.44,14.04L124.79,14.04L125.48,10.8L125.83,14.04L126.52,10.8L126.86,14.04L127.21,17.28L127.56,14.04L127.9,14.04L128.25,14.04L128.59,10.8L128.94,10.8L129.28,14.04L130.32,10.8L130.67,10.8L131.01,14.04L131.36,10.8L131.7,10.8L132.4,10.8L132.74,17.28L133.78,10.8L134.12,14.04L134.47,14.04L134.81,10.8L136.54,10.8L136.89,14.04L137.23,20.52L137.58,10.8L138.62,10.8L138.96,14.04L139.31,23.76L139.65,10.8L140,10.8L140.35,14.04L140.69,30.24L141.04,10.8L142.07,10.8L142.42,17.28L142.77,10.8L143.11,17.28L143.46,14.04L143.8,10.8L144.15,14.04L144.49,14.04L144.84,27L145.19,14.04L145.53,10.8L147.26,10.8L147.6,14.04L148.64,10.8L148.99,10.8L149.33,10.8L149.68,14.04L150.72,10.8L151.06,10.8L151.75,14.04L152.1,10.8L159.7,10.8L160.05,14.04L160.74,10.8L161.09,14.04L162.12,10.8L162.47,10.8L165.23,10.8L165.58,14.04L166.62,10.8L166.96,10.8L188.4,10.8L188.74,17.28L189.43,10.8L189.78,17.28L190.81,10.8L191.16,10.8L191.51,10.8L191.85,14.04L192.89,10.8L193.23,10.8L193.93,10.8L194.27,14.04L195.31,10.8L195.65,10.8L196,10.8" style="vector-effect: non-scaling-stroke; fill: none; stroke: rgb(255, 127, 14); stroke-opacity: 1; stroke-width: 2px; opacity: 1;"/></g><g class="points"/><g class="text"/></g></g></g><g class="overplot"/><path class="xlines-above crisp" d="M0,0" style="fill: none;"/><path class="ylines-above crisp" d="M0,0" style="fill: none;"/><g class="overlines-above"/><g class="xaxislayer-above"><g class="xtick"><text text-anchor="middle" x="0" y="289" transform="translate(60,0)" style="font-family: 'Open Sans', verdana, arial, sans-serif; font-size: 12px; fill: rgb(68, 68, 68); fill-opacity: 1; white-space: pre;">0</text></g><g class="xtick"><text text-anchor="middle" x="0" y="289" transform="translate(129.14,0)" style="font-family: 'Open Sans', verdana, arial, sans-serif; font-size: 12px; fill: rgb(68, 68, 68); fill-opacity: 1; white-space: pre;">200</text></g><g class="xtick"><text text-anchor="middle" x="0" y="289" transform="translate(198.27,0)" style="font-family: 'Open Sans', verdana, arial, sans-serif; font-size: 12px; fill: rgb(68, 68, 68); fill-opacity: 1; white-space: pre;">400</text></g></g><g class="yaxislayer-above"><g class="ytick"><text text-anchor="end" x="59" y="4.199999999999999" transform="translate(0,265.2)" style="font-family: 'Open Sans', verdana, arial, sans-serif; font-size: 12px; fill: rgb(68, 68, 68); fill-opacity: 1; white-space: pre;">0</text></g><g class="ytick"><text text-anchor="end" x="59" y="4.199999999999999" transform="translate(0,226.32)" style="font-family: 'Open Sans', verdana, arial, sans-serif; font-size: 12px; fill: rgb(68, 68, 68); fill-opacity: 1; white-space: pre;">0.2</text></g><g class="ytick"><text text-anchor="end" x="59" y="4.199999999999999" transform="translate(0,187.44)" style="font-family: 'Open Sans', verdana, arial, sans-serif; font-size: 12px; fill: rgb(68, 68, 68); fill-opacity: 1; white-space: pre;">0.4</text></g><g class="ytick"><text text-anchor="end" x="59" y="4.199999999999999" transform="translate(0,148.56)" style="font-family: 'Open Sans', verdana, arial, sans-serif; font-size: 12px; fill: rgb(68, 68, 68); fill-opacity: 1; white-space: pre;">0.6</text></g><g class="ytick"><text text-anchor="end" x="59" y="4.199999999999999" transform="translate(0,109.68)" style="font-family: 'Open Sans', verdana, arial, sans-serif; font-size: 12px; fill: rgb(68, 68, 68); fill-opacity: 1; white-space: pre;">0.8</text></g><g class="ytick"><text text-anchor="end" x="59" y="4.199999999999999" transform="translate(0,70.8)" style="font-family: 'Open Sans', verdana, arial, sans-serif; font-size: 12px; fill: rgb(68, 68, 68); fill-opacity: 1; white-space: pre;">1</text></g></g><g class="overaxes-above"/></g></g><g class="polarlayer"/><g class="ternarylayer"/><g class="geolayer"/><g class="funnelarealayer"/><g class="pielayer"/><g class="treemaplayer"/><g class="sunburstlayer"/><g class="glimages"/><defs id="topdefs-8bd263"><g class="clips"/><clipPath id="legend8bd263"><rect width="99" height="48" x="0" y="0"/></clipPath></defs><g class="layer-above"><g class="imagelayer"/><g class="shapelayer"/></g><g class="infolayer"><g class="legend" pointer-events="all" transform="translate(259.92, 60)"><rect class="bg" shape-rendering="crispEdges" width="99" height="48" x="0" y="0" style="stroke: rgb(68, 68, 68); stroke-opacity: 1; fill: rgb(255, 255, 255); fill-opacity: 1; stroke-width: 0px;"/><g class="scrollbox" transform="translate(0, 0)" clip-path="url('#legend8bd263')"><g class="groups"><g class="traces" transform="translate(0, 14.5)" style="opacity: 1;"><text class="legendtext" text-anchor="start" x="40" y="4.680000000000001" style="font-family: 'Open Sans', verdana, arial, sans-serif; font-size: 12px; fill: rgb(68, 68, 68); fill-opacity: 1; white-space: pre;">train-loss</text><g class="layers" style="opacity: 1;"><g class="legendfill"/><g class="legendlines"><path class="js-line" d="M5,0h30" style="fill: none; stroke: rgb(31, 119, 180); stroke-opacity: 1; stroke-width: 2px;"/></g><g class="legendsymbols"><g class="legendpoints"/></g></g><rect class="legendtoggle" x="0" y="-9.5" width="93.82812881469727" height="19" style="fill: rgb(0, 0, 0); fill-opacity: 0;"/></g><g class="traces" transform="translate(0, 33.5)" style="opacity: 1;"><text class="legendtext" text-anchor="start" x="40" y="4.680000000000001" style="font-family: 'Open Sans', verdana, arial, sans-serif; font-size: 12px; fill: rgb(68, 68, 68); fill-opacity: 1; white-space: pre;">acc</text><g class="layers" style="opacity: 1;"><g class="legendfill"/><g class="legendlines"><path class="js-line" d="M5,0h30" style="fill: none; stroke: rgb(255, 127, 14); stroke-opacity: 1; stroke-width: 2px;"/></g><g class="legendsymbols"><g class="legendpoints"/></g></g><rect class="legendtoggle" x="0" y="-9.5" width="93.82812881469727" height="19" style="fill: rgb(0, 0, 0); fill-opacity: 0;"/></g></g></g><rect class="scrollbar" rx="20" ry="3" width="0" height="0" x="0" y="0" style="fill: rgb(128, 139, 164); fill-opacity: 1;"/></g><g class="g-gtitle"><text class="gtitle" x="185.495" y="30" text-anchor="middle" dy="0em" style="font-family: 'Open Sans', verdana, arial, sans-serif; font-size: 17px; fill: rgb(68, 68, 68); opacity: 1; font-weight: normal; white-space: pre;">train loss</text></g><g class="g-xtitle"/><g class="g-ytitle"/></g></svg>